  0
SECTION
  2
HEADER
  9
$ACADVER
  1
AC1006
  9
$EXTMIN
 10
0.000000
 20
0.000000
 30
0.000000
  9
$EXTMAX
 10
2448.000000
 20
1182.000000
 30
0.000000
  0
ENDSEC
  0
SECTION
  2
ENTITIES
  0
POLYLINE
  8
0
 66
1
 70
1
  0
VERTEX
  8
0
 10
244.500000
 20
828.922319
 42
0.000094
  0
VERTEX
  8
0
 10
197.181851
 20
801.581623
 42
0.000153
  0
VERTEX
  8
0
 10
156.970313
 20
778.320663
 42
0.000018
  0
VERTEX
  8
0
 10
121.086269
 20
757.546676
 42
0.013057
  0
VERTEX
  8
0
 10
119.250000
 20
756.418514
 42
0.000000
  0
VERTEX
  8
0
 10
117.000000
 20
754.953894
 42
0.000000
  0
VERTEX
  8
0
 10
117.000000
 20
611.131935
 42
0.000218
  0
VERTEX
  8
0
 10
117.039058
 20
521.639424
 42
0.002792
  0
VERTEX
  8
0
 10
117.255636
 20
488.101162
 42
0.002164
  0
VERTEX
  8
0
 10
117.580069
 20
468.285431
 42
0.214165
  0
VERTEX
  8
0
 10
118.750000
 20
465.817369
 42
0.045047
  0
VERTEX
  8
0
 10
120.256835
 20
464.750352
 42
0.000046
  0
VERTEX
  8
0
 10
155.823438
 20
444.100500
 42
0.000453
  0
VERTEX
  8
0
 10
195.600093
 20
421.059357
 42
0.000279
  0
VERTEX
  8
0
 10
242.500000
 20
393.983602
 42
-0.000026
  0
VERTEX
  8
0
 10
289.389213
 20
366.945607
 42
-0.000042
  0
VERTEX
  8
0
 10
329.127963
 20
344.023614
 42
-0.000003
  0
VERTEX
  8
0
 10
364.793626
 20
323.446706
 42
-0.005173
  0
VERTEX
  8
0
 10
366.084554
 20
322.683997
 42
0.269859
  0
VERTEX
  8
0
 10
367.866991
 20
322.653995
 42
0.000526
  0
VERTEX
  8
0
 10
393.766153
 20
337.187958
 42
0.002304
  0
VERTEX
  8
0
 10
429.896345
 20
357.733058
 42
0.000485
  0
VERTEX
  8
0
 10
492.834554
 20
393.988340
 42
0.000000
  0
VERTEX
  8
0
 10
618.000000
 20
466.251128
 42
0.000000
  0
VERTEX
  8
0
 10
618.000000
 20
610.878861
 42
0.000000
  0
VERTEX
  8
0
 10
618.000000
 20
755.506594
 42
0.000000
  0
VERTEX
  8
0
 10
493.354402
 20
827.503297
 42
0.000067
  0
VERTEX
  8
0
 10
445.517530
 20
855.125904
 42
0.000111
  0
VERTEX
  8
0
 10
405.145906
 20
878.418752
 42
0.000003
  0
VERTEX
  8
0
 10
368.581865
 20
899.503699
 42
0.039612
  0
VERTEX
  8
0
 10
368.104402
 20
899.730752
 42
0.224898
  0
VERTEX
  8
0
 10
367.626601
 20
899.693538
 42
0.000016
  0
VERTEX
  8
0
 10
331.546293
 20
879.025960
 42
0.000550
  0
VERTEX
  8
0
 10
291.706590
 20
856.145009
 42
0.000331
  0
SEQEND
  0
POLYLINE
  8
0
 66
1
 70
1
  0
VERTEX
  8
0
 10
403.107430
 20
774.979626
 42
-0.056728
  0
VERTEX
  8
0
 10
408.387095
 20
773.342069
 42
-0.043768
  0
VERTEX
  8
0
 10
413.676664
 20
770.441574
 42
-0.044632
  0
VERTEX
  8
0
 10
418.248680
 20
766.757536
 42
-0.069407
  0
VERTEX
  8
0
 10
421.366732
 20
762.779095
 42
-0.023999
  0
VERTEX
  8
0
 10
423.143735
 20
759.350447
 42
-0.000124
  0
VERTEX
  8
0
 10
439.053285
 20
724.653859
 42
-0.000556
  0
VERTEX
  8
0
 10
457.117882
 20
685.115658
 42
-0.000352
  0
VERTEX
  8
0
 10
478.086501
 20
639.000000
 42
-0.000273
  0
VERTEX
  8
0
 10
514.050332
 20
559.642773
 42
-0.004700
  0
VERTEX
  8
0
 10
525.551780
 20
533.577470
 42
-0.012777
  0
VERTEX
  8
0
 10
531.142161
 20
519.605504
 42
-0.074503
  0
VERTEX
  8
0
 10
532.760948
 20
511.871147
 42
-0.012686
  0
VERTEX
  8
0
 10
532.891930
 20
507.807125
 42
-0.033014
  0
VERTEX
  8
0
 10
532.718993
 20
504.887157
 42
-0.041044
  0
VERTEX
  8
0
 10
532.197997
 20
502.408833
 42
-0.031817
  0
VERTEX
  8
0
 10
531.244727
 20
499.820342
 42
-0.042755
  0
VERTEX
  8
0
 10
528.813881
 20
495.391050
 42
-0.040869
  0
VERTEX
  8
0
 10
525.632230
 20
491.367519
 42
-0.040875
  0
VERTEX
  8
0
 10
521.838992
 20
487.915646
 42
-0.042797
  0
VERTEX
  8
0
 10
517.590020
 20
485.185778
 42
0.000000
  0
VERTEX
  8
0
 10
512.500000
 20
482.500000
 42
0.000000
  0
VERTEX
  8
0
 10
482.500000
 20
482.500000
 42
0.000000
  0
VERTEX
  8
0
 10
452.500000
 20
482.500000
 42
0.000000
  0
VERTEX
  8
0
 10
447.500000
 20
485.160708
 42
-0.070577
  0
VERTEX
  8
0
 10
441.253681
 20
489.714498
 42
-0.065858
  0
VERTEX
  8
0
 10
436.349542
 20
495.924966
 42
-0.025489
  0
VERTEX
  8
0
 10
430.385602
 20
507.217202
 42
-0.002255
  0
VERTEX
  8
0
 10
416.931216
 20
536.520291
 42
0.000923
  0
VERTEX
  8
0
 10
409.576643
 20
552.651403
 42
0.001459
  0
VERTEX
  8
0
 10
403.204323
 20
566.453555
 42
0.000323
  0
VERTEX
  8
0
 10
397.566892
 20
578.550493
 42
0.064083
  0
VERTEX
  8
0
 10
396.853418
 20
579.676621
 42
0.215884
  0
VERTEX
  8
0
 10
395.275815
 20
580.444205
 42
0.002168
  0
VERTEX
  8
0
 10
382.505079
 20
580.741207
 42
0.004035
  0
VERTEX
  8
0
 10
363.307588
 20
580.949443
 42
0.000694
  0
VERTEX
  8
0
 10
326.900608
 20
581.000000
 42
0.000000
  0
VERTEX
  8
0
 10
258.046106
 20
581.000000
 42
0.000000
  0
VERTEX
  8
0
 10
256.585345
 20
578.750000
 42
0.038105
  0
VERTEX
  8
0
 10
253.409912
 20
572.932680
 42
0.000841
  0
VERTEX
  8
0
 10
240.273480
 20
543.658404
 42
0.000335
  0
VERTEX
  8
0
 10
226.554484
 20
512.892466
 42
0.105080
  0
VERTEX
  8
0
 10
226.000000
 20
510.283202
 42
0.219554
  0
VERTEX
  8
0
 10
227.092437
 20
507.915269
 42
0.138224
  0
VERTEX
  8
0
 10
229.908634
 20
506.618278
 42
0.036473
  0
VERTEX
  8
0
 10
236.142022
 20
506.093628
 42
0.002764
  0
VERTEX
  8
0
 10
253.077555
 20
506.000000
 42
0.002398
  0
VERTEX
  8
0
 10
265.210196
 20
506.058194
 42
0.009755
  0
VERTEX
  8
0
 10
272.588287
 20
506.272967
 42
0.008830
  0
VERTEX
  8
0
 10
277.544955
 20
506.601926
 42
0.203711
  0
VERTEX
  8
0
 10
278.772200
 20
507.250000
 42
0.057873
  0
VERTEX
  8
0
 10
279.391317
 20
508.221451
 42
0.001635
  0
VERTEX
  8
0
 10
281.539742
 20
512.685938
 42
0.003314
  0
VERTEX
  8
0
 10
284.018582
 20
517.970260
 42
0.002270
  0
VERTEX
  8
0
 10
286.765368
 20
524.000000
 42
-0.010986
  0
VERTEX
  8
0
 10
292.290439
 20
535.588816
 42
-0.069960
  0
VERTEX
  8
0
 10
295.996618
 20
540.930743
 42
-0.139466
  0
VERTEX
  8
0
 10
299.838859
 20
543.272788
 42
-0.095163
  0
VERTEX
  8
0
 10
304.967559
 20
543.686618
 42
-0.031763
  0
VERTEX
  8
0
 10
307.265731
 20
543.285623
 42
-0.056331
  0
VERTEX
  8
0
 10
309.070740
 20
542.629211
 42
-0.058345
  0
VERTEX
  8
0
 10
310.641267
 20
541.604971
 42
-0.036799
  0
VERTEX
  8
0
 10
312.217559
 20
540.082539
 42
-0.110076
  0
VERTEX
  8
0
 10
314.489917
 20
536.019563
 42
-0.116131
  0
VERTEX
  8
0
 10
314.761390
 20
531.458352
 42
-0.054350
  0
VERTEX
  8
0
 10
312.831500
 20
524.756333
 42
-0.008299
  0
VERTEX
  8
0
 10
307.339569
 20
511.965459
 42
-0.010406
  0
VERTEX
  8
0
 10
301.612419
 20
499.893331
 42
-0.042811
  0
VERTEX
  8
0
 10
297.390691
 20
492.997424
 42
-0.065846
  0
VERTEX
  8
0
 10
293.058576
 20
488.497676
 42
-0.053927
  0
VERTEX
  8
0
 10
287.415375
 20
484.919263
 42
-0.051773
  0
VERTEX
  8
0
 10
283.568480
 20
483.497920
 42
-0.045102
  0
VERTEX
  8
0
 10
279.327842
 20
482.812158
 42
-0.016328
  0
VERTEX
  8
0
 10
272.263750
 20
482.546940
 42
-0.001218
  0
VERTEX
  8
0
 10
253.000000
 20
482.500000
 42
-0.001642
  0
VERTEX
  8
0
 10
236.150466
 20
482.555318
 42
-0.011364
  0
VERTEX
  8
0
 10
227.894251
 20
482.797237
 42
-0.022940
  0
VERTEX
  8
0
 10
222.910659
 20
483.286656
 42
-0.070356
  0
VERTEX
  8
0
 10
219.661802
 20
484.235825
 42
-0.038039
  0
VERTEX
  8
0
 10
215.289693
 20
486.628665
 42
-0.040465
  0
VERTEX
  8
0
 10
211.426148
 20
489.612928
 42
-0.040916
  0
VERTEX
  8
0
 10
208.130783
 20
493.147204
 42
-0.040717
  0
VERTEX
  8
0
 10
205.448960
 20
497.176450
 42
-0.022016
  0
VERTEX
  8
0
 10
203.847897
 20
500.393067
 42
-0.050881
  0
VERTEX
  8
0
 10
203.009717
 20
502.955388
 42
-0.043027
  0
VERTEX
  8
0
 10
202.631322
 20
505.884525
 42
-0.012081
  0
VERTEX
  8
0
 10
202.546800
 20
510.500000
 42
0.000000
  0
VERTEX
  8
0
 10
202.593599
 20
518.500000
 42
0.000000
  0
VERTEX
  8
0
 10
219.208819
 20
554.857359
 42
-0.002635
  0
VERTEX
  8
0
 10
225.782477
 20
569.043576
 42
-0.003749
  0
VERTEX
  8
0
 10
231.784284
 20
581.573786
 42
-0.002117
  0
VERTEX
  8
0
 10
236.970847
 20
592.083677
 42
-0.054495
  0
VERTEX
  8
0
 10
238.686903
 20
594.751882
 42
-0.037308
  0
VERTEX
  8
0
 10
240.170356
 20
596.328358
 42
-0.017127
  0
VERTEX
  8
0
 10
242.317116
 20
598.162237
 42
-0.016853
  0
VERTEX
  8
0
 10
244.718940
 20
599.946795
 42
-0.022342
  0
VERTEX
  8
0
 10
247.024884
 20
601.394523
 42
0.000000
  0
VERTEX
  8
0
 10
252.500000
 20
604.500000
 42
0.000000
  0
VERTEX
  8
0
 10
326.500000
 20
604.500000
 42
0.000000
  0
VERTEX
  8
0
 10
400.500000
 20
604.500000
 42
0.000000
  0
VERTEX
  8
0
 10
406.229590
 20
601.686437
 42
-0.025820
  0
VERTEX
  8
0
 10
408.643797
 20
600.342053
 42
-0.019307
  0
VERTEX
  8
0
 10
411.160522
 20
598.626417
 42
-0.019636
  0
VERTEX
  8
0
 10
413.410395
 20
596.821094
 42
-0.041510
  0
VERTEX
  8
0
 10
414.969932
 20
595.220310
 42
-0.057990
  0
VERTEX
  8
0
 10
416.786158
 20
592.408604
 42
-0.001883
  0
VERTEX
  8
0
 10
422.692144
 20
580.303292
 42
-0.003594
  0
VERTEX
  8
0
 10
429.513013
 20
565.925253
 42
-0.002487
  0
VERTEX
  8
0
 10
437.030448
 20
549.568103
 42
0.001591
  0
VERTEX
  8
0
 10
444.420538
 20
533.411797
 42
0.002552
  0
VERTEX
  8
0
 10
450.839751
 20
519.679985
 42
0.000478
  0
VERTEX
  8
0
 10
456.569974
 20
507.613220
 42
0.141014
  0
VERTEX
  8
0
 10
457.290107
 20
506.799542
 42
0.132996
  0
VERTEX
  8
0
 10
458.289232
 20
506.488624
 42
0.001567
  0
VERTEX
  8
0
 10
465.222504
 20
506.251997
 42
0.004608
  0
VERTEX
  8
0
 10
473.272478
 20
506.076765
 42
0.002978
  0
VERTEX
  8
0
 10
482.595012
 20
506.015313
 42
0.001548
  0
VERTEX
  8
0
 10
497.495673
 20
506.051985
 42
0.017395
  0
VERTEX
  8
0
 10
503.409797
 20
506.290720
 42
0.046381
  0
VERTEX
  8
0
 10
506.616444
 20
506.833996
 42
0.144674
  0
VERTEX
  8
0
 10
508.466294
 20
507.962755
 42
0.042986
  0
VERTEX
  8
0
 10
509.109079
 20
508.808923
 42
0.047245
  0
VERTEX
  8
0
 10
509.574668
 20
509.727079
 42
0.052729
  0
VERTEX
  8
0
 10
509.810150
 20
510.579510
 42
0.134021
  0
VERTEX
  8
0
 10
509.745149
 20
511.212755
 42
0.014385
  0
VERTEX
  8
0
 10
506.827656
 20
518.161464
 42
0.000026
  0
VERTEX
  8
0
 10
455.293468
 20
631.626093
 42
0.000011
  0
VERTEX
  8
0
 10
402.882583
 20
746.998178
 42
0.035381
  0
VERTEX
  8
0
 10
401.389390
 20
749.750000
 42
0.000000
  0
VERTEX
  8
0
 10
399.953894
 20
752.000000
 42
0.000000
  0
VERTEX
  8
0
 10
368.226947
 20
751.984687
 42
0.002402
  0
VERTEX
  8
0
 10
355.972898
 20
751.919915
 42
0.003770
  0
VERTEX
  8
0
 10
345.442140
 20
751.734256
 42
0.001058
  0
VERTEX
  8
0
 10
336.294185
 20
751.484604
 42
0.134807
  0
VERTEX
  8
0
 10
335.214382
 20
751.153657
 42
0.145557
  0
VERTEX
  8
0
 10
333.455159
 20
749.132883
 42
0.000284
  0
VERTEX
  8
0
 10
315.496880
 20
709.628323
 42
0.000375
  0
VERTEX
  8
0
 10
297.753877
 20
670.460311
 42
0.106549
  0
VERTEX
  8
0
 10
297.000000
 20
666.962767
 42
0.088576
  0
VERTEX
  8
0
 10
297.142946
 20
666.162186
 42
0.057684
  0
VERTEX
  8
0
 10
297.568188
 20
665.322175
 42
0.055876
  0
VERTEX
  8
0
 10
298.194501
 20
664.571759
 42
0.068172
  0
VERTEX
  8
0
 10
298.934259
 20
664.035184
 42
0.122039
  0
VERTEX
  8
0
 10
303.204620
 20
662.951514
 42
0.002613
  0
VERTEX
  8
0
 10
324.996170
 20
662.942438
 42
0.001679
  0
VERTEX
  8
0
 10
347.395189
 20
663.125361
 42
0.220091
  0
VERTEX
  8
0
 10
349.817317
 20
664.279880
 42
0.058755
  0
VERTEX
  8
0
 10
350.461409
 20
665.273020
 42
0.001754
  0
VERTEX
  8
0
 10
352.638074
 20
669.728143
 42
0.003470
  0
VERTEX
  8
0
 10
355.150408
 20
675.009510
 42
0.002386
  0
VERTEX
  8
0
 10
357.928286
 20
681.029880
 42
-0.009434
  0
VERTEX
  8
0
 10
363.265920
 20
692.181992
 42
-0.057796
  0
VERTEX
  8
0
 10
366.759543
 20
697.505933
 42
-0.117050
  0
VERTEX
  8
0
 10
370.203276
 20
700.078330
 42
-0.102183
  0
VERTEX
  8
0
 10
374.615141
 20
700.995033
 42
-0.073823
  0
VERTEX
  8
0
 10
378.120094
 20
700.479026
 42
-0.079479
  0
VERTEX
  8
0
 10
381.227780
 20
698.969492
 42
-0.077120
  0
VERTEX
  8
0
 10
383.781033
 20
696.519627
 42
-0.064174
  0
VERTEX
  8
0
 10
385.665270
 20
693.258696
 42
-0.081556
  0
VERTEX
  8
0
 10
386.418767
 20
690.083916
 42
-0.091172
  0
VERTEX
  8
0
 10
386.069068
 20
686.962483
 42
-0.030775
  0
VERTEX
  8
0
 10
384.264829
 20
682.094495
 42
-0.002054
  0
VERTEX
  8
0
 10
378.185967
 20
668.503230
 42
-0.010080
  0
VERTEX
  8
0
 10
372.480699
 20
656.535219
 42
-0.043613
  0
VERTEX
  8
0
 10
368.354796
 20
649.838386
 42
-0.067376
  0
VERTEX
  8
0
 10
364.091219
 20
645.475546
 42
-0.051293
  0
VERTEX
  8
0
 10
358.422911
 20
641.922911
 42
-0.051152
  0
VERTEX
  8
0
 10
354.587437
 20
640.500426
 42
-0.045439
  0
VERTEX
  8
0
 10
350.386399
 20
639.813326
 42
-0.016577
  0
VERTEX
  8
0
 10
343.416667
 20
639.547292
 42
-0.001250
  0
VERTEX
  8
0
 10
324.500000
 20
639.500000
 42
-0.001319
  0
VERTEX
  8
0
 10
305.844709
 20
639.549200
 42
-0.015917
  0
VERTEX
  8
0
 10
298.673056
 20
639.815434
 42
-0.041622
  0
VERTEX
  8
0
 10
294.290037
 20
640.487433
 42
-0.047357
  0
VERTEX
  8
0
 10
290.272950
 20
641.863271
 42
-0.053313
  0
VERTEX
  8
0
 10
285.924924
 20
644.417537
 42
-0.035178
  0
VERTEX
  8
0
 10
281.516837
 20
648.191072
 42
-0.035524
  0
VERTEX
  8
0
 10
277.766338
 20
652.454702
 42
-0.063751
  0
VERTEX
  8
0
 10
275.441149
 20
656.486608
 42
-0.047937
  0
VERTEX
  8
0
 10
274.090171
 20
660.854290
 42
-0.035472
  0
VERTEX
  8
0
 10
273.417961
 20
665.868653
 42
-0.035946
  0
VERTEX
  8
0
 10
273.465095
 20
670.823300
 42
-0.056337
  0
VERTEX
  8
0
 10
274.285381
 20
675.000000
 42
-0.026380
  0
VERTEX
  8
0
 10
275.464107
 20
678.138890
 42
-0.000873
  0
VERTEX
  8
0
 10
280.832386
 20
690.365555
 42
-0.001661
  0
VERTEX
  8
0
 10
287.242453
 20
704.766268
 42
-0.001155
  0
VERTEX
  8
0
 10
294.573345
 20
720.989122
 42
-0.001991
  0
VERTEX
  8
0
 10
303.441217
 20
740.288682
 42
-0.005759
  0
VERTEX
  8
0
 10
309.787896
 20
753.555301
 42
-0.005733
  0
VERTEX
  8
0
 10
314.518603
 20
762.886849
 42
-0.063597
  0
VERTEX
  8
0
 10
316.900422
 20
766.311539
 42
-0.041599
  0
VERTEX
  8
0
 10
320.130766
 20
769.338664
 42
-0.039860
  0
VERTEX
  8
0
 10
323.862158
 20
771.837609
 42
-0.039514
  0
VERTEX
  8
0
 10
327.975950
 20
773.731461
 42
-0.039304
  0
VERTEX
  8
0
 10
332.343746
 20
774.958584
 42
-0.046781
  0
VERTEX
  8
0
 10
340.115611
 20
775.752707
 42
-0.002008
  0
VERTEX
  8
0
 10
367.634181
 20
775.871431
 42
-0.002070
  0
VERTEX
  8
0
 10
395.085137
 20
775.765926
 42
-0.044889
  0
SEQEND
  0
POLYLINE
  8
0
 66
1
 70
1
  0
VERTEX
  8
0
 10
787.175888
 20
739.921761
 42
0.056687
  0
VERTEX
  8
0
 10
785.610776
 20
739.241043
 42
0.021615
  0
VERTEX
  8
0
 10
783.601567
 20
737.962455
 42
0.021076
  0
VERTEX
  8
0
 10
781.518637
 20
736.372098
 42
0.024225
  0
VERTEX
  8
0
 10
779.675888
 20
734.680408
 42
0.073401
  0
VERTEX
  8
0
 10
776.383427
 20
730.194287
 42
0.010831
  0
VERTEX
  8
0
 10
771.325538
 20
720.110854
 42
0.006094
  0
VERTEX
  8
0
 10
763.316422
 20
702.697083
 42
0.000793
  0
VERTEX
  8
0
 10
746.750000
 20
665.330466
 42
0.000969
  0
VERTEX
  8
0
 10
732.073797
 20
631.910062
 42
0.004620
  0
VERTEX
  8
0
 10
723.902561
 20
612.722883
 42
0.004342
  0
VERTEX
  8
0
 10
718.750343
 20
599.996686
 42
0.094277
  0
VERTEX
  8
0
 10
718.000000
 20
596.052601
 42
0.077922
  0
VERTEX
  8
0
 10
718.819441
 20
590.826427
 42
0.091224
  0
VERTEX
  8
0
 10
721.191792
 20
586.410702
 42
0.088935
  0
VERTEX
  8
0
 10
725.038065
 20
583.047812
 42
0.070085
  0
VERTEX
  8
0
 10
730.139820
 20
580.884192
 42
0.021120
  0
VERTEX
  8
0
 10
732.810441
 20
580.289994
 42
0.056946
  0
VERTEX
  8
0
 10
734.747549
 20
580.167938
 42
0.057156
  0
VERTEX
  8
0
 10
736.658172
 20
580.486146
 42
0.021400
  0
VERTEX
  8
0
 10
739.239148
 20
581.347229
 42
0.025276
  0
VERTEX
  8
0
 10
741.108479
 20
582.171619
 42
0.020104
  0
VERTEX
  8
0
 10
743.037652
 20
583.240849
 42
0.020533
  0
VERTEX
  8
0
 10
744.747998
 20
584.379489
 42
0.047082
  0
VERTEX
  8
0
 10
745.907940
 20
585.402006
 42
0.064831
  0
VERTEX
  8
0
 10
747.083805
 20
587.032795
 42
0.006536
  0
VERTEX
  8
0
 10
749.309215
 20
591.284992
 42
0.008108
  0
VERTEX
  8
0
 10
751.822861
 20
596.450739
 42
0.006369
  0
VERTEX
  8
0
 10
754.384350
 20
602.126841
 42
0.000000
  0
VERTEX
  8
0
 10
760.651477
 20
616.500000
 42
0.000000
  0
VERTEX
  8
0
 10
794.995967
 20
616.500000
 42
0.000000
  0
VERTEX
  8
0
 10
829.340456
 20
616.500000
 42
0.000000
  0
VERTEX
  8
0
 10
835.126357
 20
603.047243
 42
0.006110
  0
VERTEX
  8
0
 10
839.770001
 20
592.603801
 42
0.041413
  0
VERTEX
  8
0
 10
842.543945
 20
587.683891
 42
0.076275
  0
VERTEX
  8
0
 10
845.344483
 20
584.668224
 42
0.051370
  0
VERTEX
  8
0
 10
849.313762
 20
582.138224
 42
0.021454
  0
VERTEX
  8
0
 10
851.932371
 20
580.962813
 42
0.050079
  0
VERTEX
  8
0
 10
853.995483
 20
580.371926
 42
0.053754
  0
VERTEX
  8
0
 10
856.044013
 20
580.225290
 42
0.028234
  0
VERTEX
  8
0
 10
858.589655
 20
580.461174
 42
0.102433
  0
VERTEX
  8
0
 10
864.429238
 20
582.612691
 42
0.088084
  0
VERTEX
  8
0
 10
869.301195
 20
586.997957
 42
0.090366
  0
VERTEX
  8
0
 10
872.273214
 20
592.679343
 42
0.116169
  0
VERTEX
  8
0
 10
872.686814
 20
598.542511
 42
0.063693
  0
VERTEX
  8
0
 10
870.917343
 20
604.513740
 42
0.000279
  0
VERTEX
  8
0
 10
843.903291
 20
665.684428
 42
0.000323
  0
VERTEX
  8
0
 10
816.985962
 20
726.437915
 42
0.054540
  0
VERTEX
  8
0
 10
813.370778
 20
732.655209
 42
0.054429
  0
VERTEX
  8
0
 10
810.248626
 20
736.044412
 42
0.065488
  0
VERTEX
  8
0
 10
806.643902
 20
738.441551
 42
0.061353
  0
VERTEX
  8
0
 10
802.347621
 20
739.929983
 42
0.040402
  0
VERTEX
  8
0
 10
797.154919
 20
740.609880
 42
0.015527
  0
VERTEX
  8
0
 10
794.363216
 20
740.661200
 42
0.014045
  0
VERTEX
  8
0
 10
791.478424
 20
740.543554
 42
0.014226
  0
VERTEX
  8
0
 10
788.901393
 20
740.292020
 42
0.042839
  0
SEQEND
  0
POLYLINE
  8
0
 66
1
 70
1
  0
VERTEX
  8
0
 10
805.559652
 20
673.338989
 42
-0.000064
  0
VERTEX
  8
0
 10
809.394120
 20
664.208516
 42
-0.000102
  0
VERTEX
  8
0
 10
812.677939
 20
656.381947
 42
-0.000021
  0
VERTEX
  8
0
 10
815.565768
 20
649.494422
 42
-0.004699
  0
VERTEX
  8
0
 10
815.833333
 20
648.838989
 42
-0.514834
  0
VERTEX
  8
0
 10
815.613845
 20
648.498590
 42
-0.001737
  0
VERTEX
  8
0
 10
809.851042
 20
648.246453
 42
-0.006345
  0
VERTEX
  8
0
 10
803.093629
 20
648.060175
 42
-0.003717
  0
VERTEX
  8
0
 10
795.000000
 20
648.000000
 42
-0.003859
  0
VERTEX
  8
0
 10
786.906381
 20
648.062460
 42
-0.006586
  0
VERTEX
  8
0
 10
780.148958
 20
648.255811
 42
-0.001862
  0
VERTEX
  8
0
 10
774.397029
 20
648.517701
 42
-0.510213
  0
VERTEX
  8
0
 10
774.166667
 20
648.870844
 42
-0.008839
  0
VERTEX
  8
0
 10
778.172281
 20
658.805948
 42
-0.001718
  0
VERTEX
  8
0
 10
785.777901
 20
676.578697
 42
-0.000119
  0
VERTEX
  8
0
 10
794.465827
 20
696.676108
 42
-0.299101
  0
VERTEX
  8
0
 10
794.958830
 20
697.000000
 42
-0.294947
  0
VERTEX
  8
0
 10
795.329073
 20
696.760786
 42
-0.000582
  0
VERTEX
  8
0
 10
798.345267
 20
690.049578
 42
-0.003650
  0
VERTEX
  8
0
 10
801.700876
 20
682.410913
 42
-0.002222
  0
SEQEND
  0
POLYLINE
  8
0
 66
1
 70
1
  0
VERTEX
  8
0
 10
1456.047168
 20
739.695080
 42
0.136945
  0
VERTEX
  8
0
 10
1450.253079
 20
735.892296
 42
0.055702
  0
VERTEX
  8
0
 10
1444.828927
 20
728.073461
 42
0.017918
  0
VERTEX
  8
0
 10
1436.974032
 20
712.194829
 42
0.001230
  0
VERTEX
  8
0
 10
1416.479181
 20
666.435638
 42
0.000694
  0
VERTEX
  8
0
 10
1399.237859
 20
627.540200
 42
0.006614
  0
VERTEX
  8
0
 10
1392.117177
 20
610.820962
 42
0.013420
  0
VERTEX
  8
0
 10
1388.451938
 20
601.158623
 42
0.082164
  0
VERTEX
  8
0
 10
1387.543543
 20
595.922158
 42
0.065210
  0
VERTEX
  8
0
 10
1388.147262
 20
591.015640
 42
0.088491
  0
VERTEX
  8
0
 10
1390.000983
 20
586.964993
 42
0.087644
  0
VERTEX
  8
0
 10
1393.157352
 20
583.777863
 42
0.062731
  0
VERTEX
  8
0
 10
1397.592976
 20
581.411342
 42
0.020216
  0
VERTEX
  8
0
 10
1400.271793
 20
580.510560
 42
0.056433
  0
VERTEX
  8
0
 10
1402.222560
 20
580.173265
 42
0.057539
  0
VERTEX
  8
0
 10
1404.177849
 20
580.283830
 42
0.021665
  0
VERTEX
  8
0
 10
1406.860180
 20
580.868917
 42
0.077818
  0
VERTEX
  8
0
 10
1411.710227
 20
582.996584
 42
0.084079
  0
VERTEX
  8
0
 10
1415.531681
 20
586.461426
 42
0.052636
  0
VERTEX
  8
0
 10
1419.195406
 20
592.287492
 42
0.013221
  0
VERTEX
  8
0
 10
1423.875963
 20
602.500000
 42
0.000000
  0
VERTEX
  8
0
 10
1429.849737
 20
616.500000
 42
0.000000
  0
VERTEX
  8
0
 10
1464.233640
 20
616.762739
 42
0.000000
  0
VERTEX
  8
0
 10
1498.617544
 20
617.025479
 42
0.000000
  0
VERTEX
  8
0
 10
1504.543030
 20
602.811815
 42
0.007316
  0
VERTEX
  8
0
 10
1507.368032
 20
596.305099
 42
0.014928
  0
VERTEX
  8
0
 10
1509.810476
 20
591.301262
 42
0.018354
  0
VERTEX
  8
0
 10
1511.937247
 20
587.592385
 42
0.057072
  0
VERTEX
  8
0
 10
1513.727127
 20
585.339540
 42
0.148256
  0
VERTEX
  8
0
 10
1522.492993
 20
580.652315
 42
0.152859
  0
VERTEX
  8
0
 10
1532.268535
 20
581.699399
 42
0.156915
  0
VERTEX
  8
0
 10
1539.526043
 20
588.082302
 42
0.156899
  0
VERTEX
  8
0
 10
1541.700135
 20
597.500000
 42
0.082285
  0
VERTEX
  8
0
 10
1539.508116
 20
606.135654
 42
0.000765
  0
VERTEX
  8
0
 10
1512.933187
 20
666.564889
 42
0.000752
  0
VERTEX
  8
0
 10
1486.149229
 20
726.971577
 42
0.083930
  0
VERTEX
  8
0
 10
1481.306176
 20
734.262745
 42
0.083764
  0
VERTEX
  8
0
 10
1476.302144
 20
738.065832
 42
0.067828
  0
VERTEX
  8
0
 10
1469.952104
 20
740.364275
 42
0.065037
  0
VERTEX
  8
0
 10
1462.951787
 20
740.939220
 42
0.065259
  0
SEQEND
  0
POLYLINE
  8
0
 66
1
 70
1
  0
VERTEX
  8
0
 10
1474.927000
 20
673.137321
 42
-0.001894
  0
VERTEX
  8
0
 10
1478.801224
 20
663.766855
 42
-0.003118
  0
VERTEX
  8
0
 10
1481.997448
 20
655.811314
 42
-0.000423
  0
VERTEX
  8
0
 10
1484.778715
 20
648.744308
 42
-0.298274
  0
VERTEX
  8
0
 10
1484.699922
 20
648.366589
 42
-0.196663
  0
VERTEX
  8
0
 10
1484.309806
 20
648.203015
 42
-0.000524
  0
VERTEX
  8
0
 10
1478.385630
 20
648.157929
 42
-0.003054
  0
VERTEX
  8
0
 10
1471.671651
 20
648.154869
 42
-0.001886
  0
VERTEX
  8
0
 10
1463.777470
 20
648.229268
 42
0.000000
  0
VERTEX
  8
0
 10
1443.263071
 20
648.500000
 42
0.000000
  0
VERTEX
  8
0
 10
1452.943231
 20
671.500000
 42
0.000292
  0
VERTEX
  8
0
 10
1456.704201
 20
680.450672
 42
0.000433
  0
VERTEX
  8
0
 10
1459.988947
 20
688.299856
 42
0.000188
  0
VERTEX
  8
0
 10
1462.788612
 20
695.013316
 42
0.008765
  0
VERTEX
  8
0
 10
1463.335234
 20
696.393128
 42
-0.021806
  0
VERTEX
  8
0
 10
1463.633258
 20
697.091653
 42
-0.042250
  0
VERTEX
  8
0
 10
1463.940631
 20
697.614668
 42
-0.065480
  0
VERTEX
  8
0
 10
1464.211192
 20
697.907116
 42
-0.404522
  0
VERTEX
  8
0
 10
1464.396550
 20
697.893128
 42
-0.081181
  0
VERTEX
  8
0
 10
1464.619293
 20
697.541508
 42
-0.000120
  0
VERTEX
  8
0
 10
1467.634027
 20
690.458945
 42
-0.000982
  0
VERTEX
  8
0
 10
1470.998617
 20
682.505870
 42
-0.000606
  0
SEQEND
  0
POLYLINE
  8
0
 66
1
 70
1
  0
VERTEX
  8
0
 10
1619.000000
 20
739.543139
 42
0.063041
  0
VERTEX
  8
0
 10
1597.147336
 20
731.865246
 42
0.073348
  0
VERTEX
  8
0
 10
1579.114847
 20
719.256009
 42
0.073720
  0
VERTEX
  8
0
 10
1565.558110
 20
702.037336
 42
0.064576
  0
VERTEX
  8
0
 10
1556.826433
 20
680.844596
 42
0.041139
  0
VERTEX
  8
0
 10
1555.086612
 20
671.262556
 42
0.024744
  0
VERTEX
  8
0
 10
1554.532943
 20
659.713522
 42
0.024727
  0
VERTEX
  8
0
 10
1555.123659
 20
648.145285
 42
0.040507
  0
VERTEX
  8
0
 10
1556.893099
 20
638.500000
 42
0.062795
  0
VERTEX
  8
0
 10
1564.803595
 20
619.136193
 42
0.065890
  0
VERTEX
  8
0
 10
1577.173639
 20
602.688867
 42
0.065969
  0
VERTEX
  8
0
 10
1593.381846
 20
590.041534
 42
0.063197
  0
VERTEX
  8
0
 10
1612.556587
 20
581.829453
 42
0.046101
  0
VERTEX
  8
0
 10
1621.938807
 20
580.061236
 42
0.020761
  0
VERTEX
  8
0
 10
1634.463369
 20
579.401483
 42
0.020807
  0
VERTEX
  8
0
 10
1647.191262
 20
579.789737
 42
0.039582
  0
VERTEX
  8
0
 10
1657.312290
 20
581.332069
 42
0.047288
  0
VERTEX
  8
0
 10
1668.776064
 20
585.192895
 42
0.035247
  0
VERTEX
  8
0
 10
1680.558857
 20
591.475035
 42
0.035256
  0
VERTEX
  8
0
 10
1690.353760
 20
598.628226
 42
0.119779
  0
VERTEX
  8
0
 10
1694.986316
 20
604.966963
 42
0.079998
  0
VERTEX
  8
0
 10
1695.937269
 20
608.973415
 42
0.058181
  0
VERTEX
  8
0
 10
1695.740740
 20
613.557672
 42
0.059079
  0
VERTEX
  8
0
 10
1694.509090
 20
617.888171
 42
0.091498
  0
VERTEX
  8
0
 10
1692.392300
 20
621.136028
 42
0.075244
  0
VERTEX
  8
0
 10
1686.791768
 20
625.487114
 42
0.127132
  0
VERTEX
  8
0
 10
1681.077582
 20
626.991236
 42
0.106300
  0
VERTEX
  8
0
 10
1674.624285
 20
625.633810
 42
0.042620
  0
VERTEX
  8
0
 10
1666.683661
 20
621.251212
 42
-0.022401
  0
VERTEX
  8
0
 10
1659.857876
 20
617.115787
 42
-0.034263
  0
VERTEX
  8
0
 10
1653.574062
 20
614.223091
 42
-0.036995
  0
VERTEX
  8
0
 10
1647.334507
 20
612.368156
 42
-0.033173
  0
VERTEX
  8
0
 10
1640.657502
 20
611.367987
 42
-0.084855
  0
VERTEX
  8
0
 10
1624.493586
 20
612.776829
 42
-0.092397
  0
VERTEX
  8
0
 10
1610.238987
 20
619.496606
 42
-0.091291
  0
VERTEX
  8
0
 10
1599.235603
 20
630.982835
 42
-0.080605
  0
VERTEX
  8
0
 10
1592.452636
 20
646.131424
 42
-0.044141
  0
VERTEX
  8
0
 10
1591.388767
 20
652.259070
 42
-0.021632
  0
VERTEX
  8
0
 10
1591.068342
 20
660.181521
 42
-0.021636
  0
VERTEX
  8
0
 10
1591.436165
 20
668.154815
 42
-0.041384
  0
VERTEX
  8
0
 10
1592.532909
 20
674.465038
 42
-0.117002
  0
VERTEX
  8
0
 10
1602.980794
 20
694.159412
 42
-0.128327
  0
VERTEX
  8
0
 10
1620.856589
 20
706.254048
 42
-0.124336
  0
VERTEX
  8
0
 10
1642.827401
 20
708.285091
 42
-0.105950
  0
VERTEX
  8
0
 10
1664.610699
 20
699.927877
 42
0.024040
  0
VERTEX
  8
0
 10
1669.689047
 20
696.956636
 42
0.050604
  0
VERTEX
  8
0
 10
1673.926830
 20
695.263101
 42
0.062576
  0
VERTEX
  8
0
 10
1677.788096
 20
694.663420
 42
0.062811
  0
VERTEX
  8
0
 10
1681.672606
 20
695.038929
 42
0.105275
  0
VERTEX
  8
0
 10
1688.132907
 20
698.014300
 42
0.106191
  0
VERTEX
  8
0
 10
1692.797181
 20
703.355693
 42
0.105255
  0
VERTEX
  8
0
 10
1694.882985
 20
710.183059
 42
0.101733
  0
VERTEX
  8
0
 10
1694.046913
 20
717.357851
 42
0.119158
  0
VERTEX
  8
0
 10
1690.629337
 20
722.858072
 42
0.048563
  0
VERTEX
  8
0
 10
1683.738871
 20
728.436710
 42
0.042022
  0
VERTEX
  8
0
 10
1674.420892
 20
733.521497
 42
0.031747
  0
VERTEX
  8
0
 10
1663.473114
 20
737.543386
 42
0.015918
  0
VERTEX
  8
0
 10
1658.163151
 20
738.937542
 42
0.024130
  0
VERTEX
  8
0
 10
1653.463483
 20
739.776609
 42
0.019310
  0
VERTEX
  8
0
 10
1648.004521
 20
740.268205
 42
0.006468
  0
VERTEX
  8
0
 10
1640.000000
 20
740.574611
 42
0.006716
  0
VERTEX
  8
0
 10
1633.118456
 20
740.656457
 42
0.011885
  0
VERTEX
  8
0
 10
1627.443726
 20
740.512808
 42
0.014358
  0
VERTEX
  8
0
 10
1622.769093
 20
740.148427
 42
0.026370
  0
SEQEND
  0
POLYLINE
  8
0
 66
1
 70
1
  0
VERTEX
  8
0
 10
1911.112978
 20
739.516613
 42
0.037570
  0
VERTEX
  8
0
 10
1895.337908
 20
734.673395
 42
0.048039
  0
VERTEX
  8
0
 10
1881.785103
 20
727.806248
 42
0.049988
  0
VERTEX
  8
0
 10
1870.217170
 20
718.737421
 42
0.046402
  0
VERTEX
  8
0
 10
1860.355807
 20
707.340276
 42
0.059635
  0
VERTEX
  8
0
 10
1850.938034
 20
690.158908
 42
0.061178
  0
VERTEX
  8
0
 10
1845.942722
 20
671.387150
 42
0.060603
  0
VERTEX
  8
0
 10
1845.613322
 20
651.804872
 42
0.056633
  0
VERTEX
  8
0
 10
1849.934931
 20
632.238785
 42
0.024709
  0
VERTEX
  8
0
 10
1853.250297
 20
623.936610
 42
0.037120
  0
VERTEX
  8
0
 10
1857.012043
 20
617.108486
 42
0.034343
  0
VERTEX
  8
0
 10
1861.964944
 20
610.544542
 42
0.017615
  0
VERTEX
  8
0
 10
1868.997615
 20
603.000000
 42
0.024778
  0
VERTEX
  8
0
 10
1877.011272
 20
595.745358
 42
0.037030
  0
VERTEX
  8
0
 10
1884.739730
 20
590.318963
 42
0.036840
  0
VERTEX
  8
0
 10
1893.214325
 20
586.072826
 42
0.024193
  0
VERTEX
  8
0
 10
1903.500000
 20
582.405921
 42
0.015076
  0
VERTEX
  8
0
 10
1909.013240
 20
580.916037
 42
0.029289
  0
VERTEX
  8
0
 10
1913.502842
 20
580.121206
 42
0.022250
  0
VERTEX
  8
0
 10
1918.788826
 20
579.739057
 42
0.005472
  0
VERTEX
  8
0
 10
1927.500000
 20
579.593272
 42
0.013154
  0
VERTEX
  8
0
 10
1938.278163
 20
579.814420
 42
0.031768
  0
VERTEX
  8
0
 10
1946.197587
 20
580.691775
 42
0.034589
  0
VERTEX
  8
0
 10
1953.533817
 20
582.510416
 42
0.018454
  0
VERTEX
  8
0
 10
1962.321157
 20
585.708628
 42
0.084822
  0
VERTEX
  8
0
 10
1984.125895
 20
599.233576
 42
0.080160
  0
VERTEX
  8
0
 10
2000.703526
 20
619.468040
 42
0.079906
  0
VERTEX
  8
0
 10
2010.113458
 20
643.951361
 42
0.083468
  0
VERTEX
  8
0
 10
2011.170428
 20
669.772002
 42
0.035627
  0
VERTEX
  8
0
 10
2008.385731
 20
683.734299
 42
0.047755
  0
VERTEX
  8
0
 10
2003.798427
 20
695.792509
 42
0.047492
  0
VERTEX
  8
0
 10
1996.983702
 20
706.811579
 42
0.034690
  0
VERTEX
  8
0
 10
1987.508621
 20
717.655353
 42
0.009793
  0
VERTEX
  8
0
 10
1982.073985
 20
722.859329
 42
0.029621
  0
VERTEX
  8
0
 10
1978.106860
 20
726.099737
 42
0.031726
  0
VERTEX
  8
0
 10
1973.934603
 20
728.728657
 42
0.012603
  0
VERTEX
  8
0
 10
1967.907435
 20
731.817752
 42
0.009718
  0
VERTEX
  8
0
 10
1963.446354
 20
733.858194
 42
0.008185
  0
VERTEX
  8
0
 10
1958.647809
 20
735.848493
 42
0.008276
  0
VERTEX
  8
0
 10
1954.207756
 20
737.521027
 42
0.022573
  0
VERTEX
  8
0
 10
1951.000000
 20
738.508255
 42
0.041664
  0
VERTEX
  8
0
 10
1942.688310
 20
739.936255
 42
0.015399
  0
VERTEX
  8
0
 10
1930.812811
 20
740.602815
 42
0.015189
  0
VERTEX
  8
0
 10
1919.014544
 20
740.542630
 42
0.046859
  0
SEQEND
  0
POLYLINE
  8
0
 66
1
 70
1
  0
VERTEX
  8
0
 10
1938.888222
 20
707.939460
 42
-0.073739
  0
VERTEX
  8
0
 10
1950.380396
 20
703.431890
 42
-0.064691
  0
VERTEX
  8
0
 10
1960.651980
 20
695.620106
 42
-0.063983
  0
VERTEX
  8
0
 10
1968.683531
 20
685.348142
 42
-0.069004
  0
VERTEX
  8
0
 10
1973.609875
 20
673.631608
 42
-0.044685
  0
VERTEX
  8
0
 10
1974.559193
 20
668.131637
 42
-0.017543
  0
VERTEX
  8
0
 10
1974.917396
 20
660.438442
 42
-0.017620
  0
VERTEX
  8
0
 10
1974.733190
 20
652.696904
 42
-0.041859
  0
VERTEX
  8
0
 10
1973.914710
 20
647.000000
 42
-0.058995
  0
VERTEX
  8
0
 10
1970.565539
 20
637.657510
 42
-0.050608
  0
VERTEX
  8
0
 10
1964.985828
 20
628.820691
 42
-0.050896
  0
VERTEX
  8
0
 10
1957.783850
 20
621.334246
 42
-0.061475
  0
VERTEX
  8
0
 10
1949.632147
 20
615.990441
 42
-0.099108
  0
VERTEX
  8
0
 10
1931.633644
 20
611.204427
 42
-0.101807
  0
VERTEX
  8
0
 10
1913.363528
 20
613.790022
 42
-0.100922
  0
VERTEX
  8
0
 10
1897.475704
 20
623.414659
 42
-0.095692
  0
VERTEX
  8
0
 10
1886.265906
 20
638.655358
 42
-0.014798
  0
VERTEX
  8
0
 10
1884.166227
 20
643.436889
 42
-0.042997
  0
VERTEX
  8
0
 10
1883.106439
 20
646.884418
 42
-0.035706
  0
VERTEX
  8
0
 10
1882.551538
 20
650.796228
 42
-0.007818
  0
VERTEX
  8
0
 10
1882.185157
 20
657.587775
 42
-0.007987
  0
VERTEX
  8
0
 10
1882.046643
 20
663.802547
 42
-0.024388
  0
VERTEX
  8
0
 10
1882.225657
 20
668.016315
 42
-0.030748
  0
VERTEX
  8
0
 10
1882.781927
 20
671.630815
 42
-0.020179
  0
VERTEX
  8
0
 10
1883.842808
 20
675.708389
 42
-0.060655
  0
VERTEX
  8
0
 10
1888.781391
 20
686.885736
 42
-0.065140
  0
VERTEX
  8
0
 10
1896.163752
 20
696.255709
 42
-0.066277
  0
VERTEX
  8
0
 10
1905.582780
 20
703.283769
 42
-0.066543
  0
VERTEX
  8
0
 10
1916.500000
 20
707.590977
 42
-0.035513
  0
VERTEX
  8
0
 10
1921.640122
 20
708.483359
 42
-0.021337
  0
VERTEX
  8
0
 10
1927.824870
 20
708.843920
 42
-0.021395
  0
VERTEX
  8
0
 10
1933.950113
 20
708.677152
 42
-0.039164
  0
SEQEND
  0
POLYLINE
  8
0
 66
1
 70
1
  0
VERTEX
  8
0
 10
1207.604322
 20
738.961570
 42
0.074173
  0
VERTEX
  8
0
 10
1204.732729
 20
737.613741
 42
0.042766
  0
VERTEX
  8
0
 10
1201.738898
 20
735.230166
 42
0.042107
  0
VERTEX
  8
0
 10
1199.121565
 20
732.298171
 42
0.060145
  0
VERTEX
  8
0
 10
1197.376839
 20
729.282119
 42
0.100724
  0
VERTEX
  8
0
 10
1195.942001
 20
722.329973
 42
0.000667
  0
VERTEX
  8
0
 10
1195.853134
 20
660.018495
 42
0.000680
  0
VERTEX
  8
0
 10
1195.932006
 20
597.764607
 42
0.098606
  0
VERTEX
  8
0
 10
1197.364026
 20
590.671190
 42
0.068573
  0
VERTEX
  8
0
 10
1199.100554
 20
587.725748
 42
0.046817
  0
VERTEX
  8
0
 10
1201.790318
 20
584.913884
 42
0.045497
  0
VERTEX
  8
0
 10
1205.062293
 20
582.562684
 42
0.053397
  0
VERTEX
  8
0
 10
1208.539775
 20
580.986873
 42
0.101065
  0
VERTEX
  8
0
 10
1214.106960
 20
580.330676
 42
0.081205
  0
VERTEX
  8
0
 10
1219.967782
 20
581.803331
 42
0.080369
  0
VERTEX
  8
0
 10
1225.107960
 20
585.088046
 42
0.095517
  0
VERTEX
  8
0
 10
1228.593713
 20
589.660762
 42
0.094708
  0
VERTEX
  8
0
 10
1229.749510
 20
593.804487
 42
0.014072
  0
VERTEX
  8
0
 10
1230.228585
 20
602.503187
 42
0.006224
  0
VERTEX
  8
0
 10
1230.458277
 20
618.422256
 42
0.000495
  0
VERTEX
  8
0
 10
1230.500000
 20
660.573238
 42
0.000000
  0
VERTEX
  8
0
 10
1230.500000
 20
727.646476
 42
0.000000
  0
VERTEX
  8
0
 10
1227.683860
 20
731.901742
 42
0.078792
  0
VERTEX
  8
0
 10
1223.829450
 20
736.107065
 42
0.083583
  0
VERTEX
  8
0
 10
1218.936106
 20
738.811348
 42
0.082664
  0
VERTEX
  8
0
 10
1213.379922
 20
739.783076
 42
0.074878
  0
SEQEND
  0
POLYLINE
  8
0
 66
1
 70
1
  0
VERTEX
  8
0
 10
2193.969961
 20
737.750000
 42
0.078371
  0
VERTEX
  8
0
 10
2189.091920
 20
734.236435
 42
0.089542
  0
VERTEX
  8
0
 10
2185.793897
 20
729.533314
 42
0.090881
  0
VERTEX
  8
0
 10
2184.379718
 20
724.033664
 42
0.083558
  0
VERTEX
  8
0
 10
2184.941669
 20
718.216626
 42
0.080393
  0
VERTEX
  8
0
 10
2186.369757
 20
715.048343
 42
0.004761
  0
VERTEX
  8
0
 10
2192.274682
 20
706.294388
 42
0.005770
  0
VERTEX
  8
0
 10
2200.594480
 20
694.503869
 42
0.002161
  0
VERTEX
  8
0
 10
2212.523088
 20
678.155796
 42
0.000000
  0
VERTEX
  8
0
 10
2239.000000
 20
642.196796
 42
0.000000
  0
VERTEX
  8
0
 10
2239.021962
 20
618.348398
 42
0.002138
  0
VERTEX
  8
0
 10
2239.093208
 20
604.637220
 42
0.014387
  0
VERTEX
  8
0
 10
2239.353252
 20
597.840906
 42
0.029571
  0
VERTEX
  8
0
 10
2239.889843
 20
593.609564
 42
0.060338
  0
VERTEX
  8
0
 10
2240.896331
 20
590.421401
 42
0.140408
  0
VERTEX
  8
0
 10
2247.077989
 20
583.160944
 42
0.143947
  0
VERTEX
  8
0
 10
2256.105485
 20
580.362871
 42
0.143048
  0
VERTEX
  8
0
 10
2265.253810
 20
582.890192
 42
0.138196
  0
VERTEX
  8
0
 10
2271.750000
 20
589.969961
 42
0.053626
  0
VERTEX
  8
0
 10
2273.036573
 20
593.381432
 42
0.043834
  0
VERTEX
  8
0
 10
2273.680849
 20
597.229802
 42
0.017838
  0
VERTEX
  8
0
 10
2273.947488
 20
603.486190
 42
0.001730
  0
VERTEX
  8
0
 10
2274.000000
 20
618.659925
 42
0.000000
  0
VERTEX
  8
0
 10
2274.000000
 20
642.896071
 42
0.000000
  0
VERTEX
  8
0
 10
2300.403305
 20
678.566848
 42
0.002486
  0
VERTEX
  8
0
 10
2318.203987
 20
702.867217
 42
0.023559
  0
VERTEX
  8
0
 10
2325.273882
 20
713.654782
 42
0.059839
  0
VERTEX
  8
0
 10
2328.276684
 20
720.498008
 42
0.120430
  0
VERTEX
  8
0
 10
2328.594434
 20
726.348318
 42
0.147941
  0
VERTEX
  8
0
 10
2324.074192
 20
735.047947
 42
0.153815
  0
VERTEX
  8
0
 10
2315.556335
 20
739.619878
 42
0.145628
  0
VERTEX
  8
0
 10
2305.585057
 20
738.600770
 42
0.129796
  0
VERTEX
  8
0
 10
2297.267396
 20
732.287830
 42
0.010898
  0
VERTEX
  8
0
 10
2295.331437
 20
729.696457
 42
0.000648
  0
VERTEX
  8
0
 10
2289.662294
 20
721.730863
 42
0.000975
  0
VERTEX
  8
0
 10
2282.941178
 20
712.221963
 42
0.000719
  0
VERTEX
  8
0
 10
2275.535105
 20
701.668300
 42
-0.003054
  0
VERTEX
  8
0
 10
2268.284873
 20
691.438637
 42
-0.005155
  0
VERTEX
  8
0
 10
2262.066074
 20
682.962723
 42
-0.001101
  0
VERTEX
  8
0
 10
2256.585904
 20
675.686175
 42
-0.477001
  0
VERTEX
  8
0
 10
2256.043350
 20
675.668300
 42
-0.026463
  0
VERTEX
  8
0
 10
2255.513046
 20
676.350662
 42
-0.000106
  0
VERTEX
  8
0
 10
2249.979518
 20
684.309689
 42
-0.000537
  0
VERTEX
  8
0
 10
2243.713107
 20
693.347625
 42
-0.000338
  0
VERTEX
  8
0
 10
2236.411650
 20
703.917877
 42
0.002524
  0
VERTEX
  8
0
 10
2228.920070
 20
714.662607
 42
0.003451
  0
VERTEX
  8
0
 10
2222.057513
 20
724.258656
 42
0.002261
  0
VERTEX
  8
0
 10
2216.206800
 20
732.245389
 42
0.039823
  0
VERTEX
  8
0
 10
2214.103286
 20
734.661383
 42
0.070345
  0
VERTEX
  8
0
 10
2209.571197
 20
737.996192
 42
0.085629
  0
VERTEX
  8
0
 10
2204.581160
 20
739.666821
 42
0.085485
  0
VERTEX
  8
0
 10
2199.313048
 20
739.570224
 42
0.069837
  0
SEQEND
  0
POLYLINE
  8
0
 66
1
 70
1
  0
VERTEX
  8
0
 10
911.122803
 20
738.054743
 42
0.048227
  0
VERTEX
  8
0
 10
908.195493
 20
737.005697
 42
0.043325
  0
VERTEX
  8
0
 10
905.409441
 20
735.384198
 42
0.041606
  0
VERTEX
  8
0
 10
902.841115
 20
733.234749
 42
0.037359
  0
VERTEX
  8
0
 10
900.561789
 20
730.615448
 42
0.135304
  0
VERTEX
  8
0
 10
899.265250
 20
727.296810
 42
0.017274
  0
VERTEX
  8
0
 10
898.732630
 20
719.582122
 42
0.007038
  0
VERTEX
  8
0
 10
898.436398
 20
704.999830
 42
0.000446
  0
VERTEX
  8
0
 10
898.207501
 20
662.177237
 42
0.000862
  0
VERTEX
  8
0
 10
898.138167
 20
636.767909
 42
0.001336
  0
VERTEX
  8
0
 10
898.174772
 20
614.831720
 42
0.000390
  0
VERTEX
  8
0
 10
898.272440
 20
595.757034
 42
0.043296
  0
VERTEX
  8
0
 10
898.506825
 20
593.228619
 42
0.121827
  0
VERTEX
  8
0
 10
900.847458
 20
588.007404
 42
0.080069
  0
VERTEX
  8
0
 10
905.703307
 20
583.509896
 42
0.079116
  0
VERTEX
  8
0
 10
911.793179
 20
580.721336
 42
0.113124
  0
VERTEX
  8
0
 10
917.706862
 20
580.447859
 42
0.058191
  0
VERTEX
  8
0
 10
921.638008
 20
581.643819
 42
0.052317
  0
VERTEX
  8
0
 10
925.342240
 20
583.745685
 42
0.053560
  0
VERTEX
  8
0
 10
928.444474
 20
586.508983
 42
0.068918
  0
VERTEX
  8
0
 10
930.593713
 20
589.660762
 42
0.059333
  0
VERTEX
  8
0
 10
931.617390
 20
592.533277
 42
0.032046
  0
VERTEX
  8
0
 10
932.215498
 20
596.245633
 42
0.016888
  0
VERTEX
  8
0
 10
932.571664
 20
601.992465
 42
0.003013
  0
VERTEX
  8
0
 10
932.809426
 20
612.750000
 42
0.000000
  0
VERTEX
  8
0
 10
933.118852
 20
632.000000
 42
0.000000
  0
VERTEX
  8
0
 10
946.382456
 20
632.000000
 42
0.000000
  0
VERTEX
  8
0
 10
959.646060
 20
632.000000
 42
0.000000
  0
VERTEX
  8
0
 10
977.279974
 20
609.625123
 42
0.002657
  0
VERTEX
  8
0
 10
984.259690
 20
600.865028
 42
0.003639
  0
VERTEX
  8
0
 10
990.641180
 20
593.059462
 42
0.002374
  0
VERTEX
  8
0
 10
996.074972
 20
586.573819
 42
0.042316
  0
VERTEX
  8
0
 10
998.002413
 20
584.651423
 42
0.109862
  0
VERTEX
  8
0
 10
1004.983613
 20
581.011071
 42
0.106281
  0
VERTEX
  8
0
 10
1012.937964
 20
580.612632
 42
0.110034
  0
VERTEX
  8
0
 10
1020.138249
 20
583.496068
 42
0.125391
  0
VERTEX
  8
0
 10
1025.031086
 20
589.060934
 42
0.100116
  0
VERTEX
  8
0
 10
1026.807589
 20
595.425956
 42
0.120084
  0
VERTEX
  8
0
 10
1025.780017
 20
601.543701
 42
0.061143
  0
VERTEX
  8
0
 10
1021.227720
 20
609.356690
 42
0.010487
  0
VERTEX
  8
0
 10
1010.534870
 20
622.834682
 42
-0.001990
  0
VERTEX
  8
0
 10
1005.689341
 20
628.733618
 42
-0.003321
  0
VERTEX
  8
0
 10
1001.663835
 20
633.741798
 42
-0.000444
  0
VERTEX
  8
0
 10
998.140117
 20
638.193956
 42
-0.414297
  0
VERTEX
  8
0
 10
998.168015
 20
638.431483
 42
-0.040620
  0
VERTEX
  8
0
 10
998.429849
 20
638.605714
 42
-0.000658
  0
VERTEX
  8
0
 10
999.978484
 20
639.461073
 42
-0.001716
  0
VERTEX
  8
0
 10
1001.785025
 20
640.447713
 42
-0.001138
  0
VERTEX
  8
0
 10
1003.865123
 20
641.568388
 42
0.108678
  0
VERTEX
  8
0
 10
1018.184500
 20
653.836631
 42
0.095167
  0
VERTEX
  8
0
 10
1026.879788
 20
671.559387
 42
0.091229
  0
VERTEX
  8
0
 10
1028.602022
 20
691.915074
 42
0.089968
  0
VERTEX
  8
0
 10
1022.988738
 20
711.658678
 42
0.052694
  0
VERTEX
  8
0
 10
1019.368217
 20
717.411199
 42
0.036005
  0
VERTEX
  8
0
 10
1014.162552
 20
723.123682
 42
0.035316
  0
VERTEX
  8
0
 10
1008.040206
 20
728.168472
 42
0.043355
  0
VERTEX
  8
0
 10
1001.658033
 20
731.924578
 42
0.033720
  0
VERTEX
  8
0
 10
992.825185
 20
735.430770
 42
0.046596
  0
VERTEX
  8
0
 10
984.502105
 20
737.268700
 42
0.024977
  0
VERTEX
  8
0
 10
972.757367
 20
738.142570
 42
0.003527
  0
VERTEX
  8
0
 10
948.500000
 20
738.561559
 42
0.002431
  0
VERTEX
  8
0
 10
935.227857
 20
738.632619
 42
0.003513
  0
VERTEX
  8
0
 10
923.495448
 20
738.555967
 42
0.001838
  0
VERTEX
  8
0
 10
913.565379
 20
738.384815
 42
0.056766
  0
SEQEND
  0
POLYLINE
  8
0
 66
1
 70
1
  0
VERTEX
  8
0
 10
977.832592
 20
705.457074
 42
-0.051455
  0
VERTEX
  8
0
 10
982.196930
 20
703.655474
 42
-0.046308
  0
VERTEX
  8
0
 10
986.270269
 20
700.946623
 42
-0.048409
  0
VERTEX
  8
0
 10
989.578220
 20
697.699273
 42
-0.075674
  0
VERTEX
  8
0
 10
991.648956
 20
694.297742
 42
-0.048814
  0
VERTEX
  8
0
 10
992.169730
 20
692.603596
 42
-0.016357
  0
VERTEX
  8
0
 10
992.603131
 20
690.047640
 42
-0.016100
  0
VERTEX
  8
0
 10
992.900745
 20
687.170098
 42
-0.017718
  0
VERTEX
  8
0
 10
993.000000
 20
684.369976
 42
-0.049382
  0
VERTEX
  8
0
 10
992.414693
 20
678.458137
 42
-0.074645
  0
VERTEX
  8
0
 10
990.661891
 20
673.601843
 42
-0.077702
  0
VERTEX
  8
0
 10
987.624925
 20
669.610962
 42
-0.058514
  0
VERTEX
  8
0
 10
983.223422
 20
666.276578
 42
0.000000
  0
VERTEX
  8
0
 10
978.500000
 20
663.500000
 42
0.000000
  0
VERTEX
  8
0
 10
955.750000
 20
663.182402
 42
0.000000
  0
VERTEX
  8
0
 10
933.000000
 20
662.864804
 42
0.000000
  0
VERTEX
  8
0
 10
933.000000
 20
684.932402
 42
0.000000
  0
VERTEX
  8
0
 10
933.000000
 20
707.000000
 42
0.000000
  0
VERTEX
  8
0
 10
952.818499
 20
707.000000
 42
-0.003825
  0
VERTEX
  8
0
 10
962.723406
 20
706.924234
 42
-0.011577
  0
VERTEX
  8
0
 10
969.462046
 20
706.664997
 42
-0.016707
  0
VERTEX
  8
0
 10
974.306378
 20
706.203318
 42
-0.040083
  0
SEQEND
  0
POLYLINE
  8
0
 66
1
 70
1
  0
VERTEX
  8
0
 10
1053.364681
 20
738.047393
 42
0.154275
  0
VERTEX
  8
0
 10
1045.267786
 20
733.190618
 42
0.148530
  0
VERTEX
  8
0
 10
1041.282243
 20
724.487948
 42
0.148732
  0
VERTEX
  8
0
 10
1042.812865
 20
715.047930
 42
0.154755
  0
VERTEX
  8
0
 10
1049.328838
 20
708.234911
 42
0.073799
  0
VERTEX
  8
0
 10
1051.809601
 20
707.320145
 42
0.028037
  0
VERTEX
  8
0
 10
1055.466386
 20
706.767908
 42
0.015853
  0
VERTEX
  8
0
 10
1061.158301
 20
706.413858
 42
0.003233
  0
VERTEX
  8
0
 10
1071.250000
 20
706.172085
 42
0.000000
  0
VERTEX
  8
0
 10
1090.000000
 20
705.844171
 42
0.000000
  0
VERTEX
  8
0
 10
1090.000000
 20
649.889967
 42
0.001134
  0
VERTEX
  8
0
 10
1090.092526
 20
609.109506
 42
0.021230
  0
VERTEX
  8
0
 10
1090.695536
 20
596.286845
 42
0.075889
  0
VERTEX
  8
0
 10
1092.349249
 20
589.556405
 42
0.120293
  0
VERTEX
  8
0
 10
1095.838622
 20
584.789245
 42
0.107571
  0
VERTEX
  8
0
 10
1102.871715
 20
581.081240
 42
0.113224
  0
VERTEX
  8
0
 10
1110.674188
 20
580.726904
 42
0.116073
  0
VERTEX
  8
0
 10
1117.704254
 20
583.792563
 42
0.117436
  0
VERTEX
  8
0
 10
1122.593713
 20
589.660762
 42
0.089839
  0
VERTEX
  8
0
 10
1123.734181
 20
593.602072
 42
0.016520
  0
VERTEX
  8
0
 10
1124.261725
 20
601.187477
 42
0.007216
  0
VERTEX
  8
0
 10
1124.563321
 20
614.915294
 42
0.000631
  0
VERTEX
  8
0
 10
1124.781808
 20
649.750000
 42
0.000000
  0
VERTEX
  8
0
 10
1125.063616
 20
706.000000
 42
0.000000
  0
VERTEX
  8
0
 10
1142.281808
 20
706.021962
 42
0.009722
  0
VERTEX
  8
0
 10
1154.652483
 20
706.278301
 42
0.047683
  0
VERTEX
  8
0
 10
1161.570876
 20
707.221207
 42
0.084857
  0
VERTEX
  8
0
 10
1166.132052
 20
709.149948
 42
0.083925
  0
VERTEX
  8
0
 10
1169.813548
 20
712.490094
 42
0.123384
  0
VERTEX
  8
0
 10
1173.011108
 20
719.631324
 42
0.123987
  0
VERTEX
  8
0
 10
1172.455023
 20
727.422530
 42
0.123837
  0
VERTEX
  8
0
 10
1168.273302
 20
734.027896
 42
0.122908
  0
VERTEX
  8
0
 10
1161.453076
 20
737.891347
 42
0.066807
  0
VERTEX
  8
0
 10
1155.044773
 20
738.777407
 42
0.000634
  0
VERTEX
  8
0
 10
1107.664803
 20
738.905926
 42
0.000718
  0
VERTEX
  8
0
 10
1060.622185
 20
738.906263
 42
0.058248
  0
SEQEND
  0
POLYLINE
  8
0
 66
1
 70
1
  0
VERTEX
  8
0
 10
1281.500000
 20
738.090255
 42
0.063106
  0
VERTEX
  8
0
 10
1276.873258
 20
736.302029
 42
0.067185
  0
VERTEX
  8
0
 10
1272.946418
 20
733.444770
 42
0.067861
  0
VERTEX
  8
0
 10
1269.948476
 20
729.676905
 42
0.066517
  0
VERTEX
  8
0
 10
1268.044006
 20
725.218945
 42
0.067408
  0
VERTEX
  8
0
 10
1266.988421
 20
717.521723
 42
0.000615
  0
VERTEX
  8
0
 10
1266.962527
 20
659.496608
 42
0.000675
  0
VERTEX
  8
0
 10
1267.085734
 20
601.772709
 42
0.060873
  0
VERTEX
  8
0
 10
1268.147450
 20
593.328704
 42
0.119416
  0
VERTEX
  8
0
 10
1271.920578
 20
586.158093
 42
0.120174
  0
VERTEX
  8
0
 10
1278.549572
 20
581.529828
 42
0.121004
  0
VERTEX
  8
0
 10
1286.527023
 20
580.491183
 42
0.122169
  0
VERTEX
  8
0
 10
1294.046299
 20
583.274348
 42
0.060930
  0
VERTEX
  8
0
 10
1298.475050
 20
587.153518
 42
0.125828
  0
VERTEX
  8
0
 10
1300.583486
 20
591.209352
 42
0.050699
  0
VERTEX
  8
0
 10
1301.442249
 20
597.894847
 42
0.003677
  0
VERTEX
  8
0
 10
1301.797808
 20
616.520455
 42
0.000000
  0
VERTEX
  8
0
 10
1302.095615
 20
641.899130
 42
0.000000
  0
VERTEX
  8
0
 10
1334.976390
 20
642.199565
 42
0.001076
  0
VERTEX
  8
0
 10
1355.757798
 20
642.434168
 42
0.013368
  0
VERTEX
  8
0
 10
1363.643353
 20
642.751140
 42
0.036513
  0
VERTEX
  8
0
 10
1367.956632
 20
643.358552
 42
0.106679
  0
VERTEX
  8
0
 10
1370.678582
 20
644.591948
 42
0.103842
  0
VERTEX
  8
0
 10
1376.104290
 20
650.705666
 42
0.130461
  0
VERTEX
  8
0
 10
1378.040474
 20
658.000159
 42
0.130462
  0
VERTEX
  8
0
 10
1376.104178
 20
665.294567
 42
0.103845
  0
VERTEX
  8
0
 10
1370.678388
 20
671.408052
 42
0.106747
  0
VERTEX
  8
0
 10
1367.955289
 20
672.641425
 42
0.036542
  0
VERTEX
  8
0
 10
1363.640518
 20
673.247484
 42
0.013360
  0
VERTEX
  8
0
 10
1355.749576
 20
673.561538
 42
0.001072
  0
VERTEX
  8
0
 10
1334.928388
 20
673.788820
 42
0.000000
  0
VERTEX
  8
0
 10
1302.000000
 20
674.077641
 42
0.000000
  0
VERTEX
  8
0
 10
1302.000000
 20
690.538820
 42
0.000000
  0
VERTEX
  8
0
 10
1302.000000
 20
707.000000
 42
0.000000
  0
VERTEX
  8
0
 10
1339.098871
 20
707.000000
 42
0.001260
  0
VERTEX
  8
0
 10
1360.050807
 20
707.052801
 42
0.008750
  0
VERTEX
  8
0
 10
1370.305830
 20
707.283991
 42
0.015940
  0
VERTEX
  8
0
 10
1376.411520
 20
707.723856
 42
0.085022
  0
VERTEX
  8
0
 10
1379.618565
 20
708.623287
 42
0.068123
  0
VERTEX
  8
0
 10
1382.946040
 20
710.799077
 42
0.076450
  0
VERTEX
  8
0
 10
1385.417868
 20
713.715612
 42
0.071117
  0
VERTEX
  8
0
 10
1387.022286
 20
717.422713
 42
0.049211
  0
VERTEX
  8
0
 10
1387.788043
 20
721.934603
 42
0.059334
  0
VERTEX
  8
0
 10
1387.565669
 20
726.492052
 42
0.081545
  0
VERTEX
  8
0
 10
1386.238594
 20
730.366243
 42
0.080557
  0
VERTEX
  8
0
 10
1383.726765
 20
733.646410
 42
0.056404
  0
VERTEX
  8
0
 10
1379.996602
 20
736.445934
 42
0.096189
  0
VERTEX
  8
0
 10
1376.518871
 20
737.673593
 42
0.025687
  0
VERTEX
  8
0
 10
1370.647884
 20
738.240124
 42
0.009580
  0
VERTEX
  8
0
 10
1359.829605
 20
738.517946
 42
0.000723
  0
VERTEX
  8
0
 10
1330.500000
 20
738.666607
 42
0.001529
  0
VERTEX
  8
0
 10
1312.653992
 20
738.676673
 42
0.002317
  0
VERTEX
  8
0
 10
1297.131250
 20
738.566029
 42
0.000865
  0
VERTEX
  8
0
 10
1283.778927
 20
738.385868
 42
0.056948
  0
SEQEND
  0
POLYLINE
  8
0
 66
1
 70
1
  0
VERTEX
  8
0
 10
1720.122803
 20
738.014858
 42
0.084211
  0
VERTEX
  8
0
 10
1714.915740
 20
735.784915
 42
0.096313
  0
VERTEX
  8
0
 10
1711.012135
 20
732.039782
 42
0.094558
  0
VERTEX
  8
0
 10
1708.748021
 20
727.044129
 42
0.078134
  0
VERTEX
  8
0
 10
1708.274184
 20
721.208529
 42
0.047973
  0
VERTEX
  8
0
 10
1708.986003
 20
717.081679
 42
0.071504
  0
VERTEX
  8
0
 10
1710.442063
 20
713.726468
 42
0.072086
  0
VERTEX
  8
0
 10
1712.773889
 20
710.936199
 42
0.049649
  0
VERTEX
  8
0
 10
1716.104530
 20
708.500000
 42
0.067821
  0
VERTEX
  8
0
 10
1718.720790
 20
707.403493
 42
0.039196
  0
VERTEX
  8
0
 10
1722.081840
 20
706.781159
 42
0.018976
  0
VERTEX
  8
0
 10
1727.445424
 20
706.422405
 42
0.002838
  0
VERTEX
  8
0
 10
1738.250000
 20
706.172085
 42
0.000000
  0
VERTEX
  8
0
 10
1757.000000
 20
705.844171
 42
0.000000
  0
VERTEX
  8
0
 10
1757.000000
 20
649.372426
 42
0.000963
  0
VERTEX
  8
0
 10
1757.079220
 20
608.239399
 42
0.020903
  0
VERTEX
  8
0
 10
1757.630573
 20
596.170676
 42
0.078529
  0
VERTEX
  8
0
 10
1759.229130
 20
589.754958
 42
0.103194
  0
VERTEX
  8
0
 10
1762.660724
 20
584.809226
 42
0.138275
  0
VERTEX
  8
0
 10
1770.421256
 20
580.732004
 42
0.132664
  0
VERTEX
  8
0
 10
1779.304064
 20
581.219719
 42
0.130334
  0
VERTEX
  8
0
 10
1786.848294
 20
586.139263
 42
0.131368
  0
VERTEX
  8
0
 10
1790.935874
 20
594.136593
 42
0.046137
  0
VERTEX
  8
0
 10
1791.414555
 20
598.138346
 42
0.002157
  0
VERTEX
  8
0
 10
1791.721815
 20
611.774457
 42
0.003120
  0
VERTEX
  8
0
 10
1791.933841
 20
629.478692
 42
0.001434
  0
VERTEX
  8
0
 10
1792.000000
 20
652.549221
 42
0.000000
  0
VERTEX
  8
0
 10
1792.000000
 20
706.000000
 42
0.000000
  0
VERTEX
  8
0
 10
1809.288110
 20
706.000000
 42
0.003021
  0
VERTEX
  8
0
 10
1819.689565
 20
706.062837
 42
0.022823
  0
VERTEX
  8
0
 10
1824.593612
 20
706.346213
 42
0.046858
  0
VERTEX
  8
0
 10
1827.858344
 20
706.997835
 42
0.045465
  0
VERTEX
  8
0
 10
1830.979568
 20
708.250000
 42
0.043026
  0
VERTEX
  8
0
 10
1834.375817
 20
710.371662
 42
0.059700
  0
VERTEX
  8
0
 10
1836.965597
 20
712.851157
 42
0.063224
  0
VERTEX
  8
0
 10
1838.790684
 20
715.751806
 42
0.056788
  0
VERTEX
  8
0
 10
1839.914833
 20
719.122803
 42
0.078992
  0
VERTEX
  8
0
 10
1840.171291
 20
724.170065
 42
0.081549
  0
VERTEX
  8
0
 10
1838.839637
 20
728.988665
 42
0.079936
  0
VERTEX
  8
0
 10
1836.004937
 20
733.205036
 42
0.071888
  0
VERTEX
  8
0
 10
1831.895470
 20
736.500000
 42
0.102845
  0
VERTEX
  8
0
 10
1828.340969
 20
737.706940
 42
0.020919
  0
VERTEX
  8
0
 10
1821.675559
 20
738.244916
 42
0.008266
  0
VERTEX
  8
0
 10
1809.351339
 20
738.518232
 42
0.000627
  0
VERTEX
  8
0
 10
1776.000000
 20
738.664573
 42
0.001466
  0
VERTEX
  8
0
 10
1755.635541
 20
738.668702
 42
0.002224
  0
VERTEX
  8
0
 10
1737.929823
 20
738.541606
 42
0.000820
  0
VERTEX
  8
0
 10
1722.690104
 20
738.339414
 42
0.055480
  0
SEQEND
  0
POLYLINE
  8
0
 66
1
 70
1
  0
VERTEX
  8
0
 10
2052.704136
 20
737.727053
 42
0.067878
  0
VERTEX
  8
0
 10
2049.060625
 20
735.975088
 42
0.050812
  0
VERTEX
  8
0
 10
2045.608362
 20
733.153033
 42
0.051166
  0
VERTEX
  8
0
 10
2042.822826
 20
729.720539
 42
0.072222
  0
VERTEX
  8
0
 10
2041.164357
 20
726.154237
 42
0.072116
  0
VERTEX
  8
0
 10
2040.070923
 20
718.775312
 42
0.000583
  0
VERTEX
  8
0
 10
2039.954675
 20
659.583760
 42
0.000620
  0
VERTEX
  8
0
 10
2039.980684
 20
600.585776
 42
0.067402
  0
VERTEX
  8
0
 10
2041.057795
 20
592.731115
 42
0.104536
  0
VERTEX
  8
0
 10
2043.801327
 20
587.450916
 42
0.080358
  0
VERTEX
  8
0
 10
2048.685809
 20
583.141647
 42
0.080673
  0
VERTEX
  8
0
 10
2054.659350
 20
580.605191
 42
0.106903
  0
VERTEX
  8
0
 10
2060.547474
 20
580.442928
 42
0.061162
  0
VERTEX
  8
0
 10
2063.636770
 20
581.424402
 42
0.039139
  0
VERTEX
  8
0
 10
2066.930846
 20
583.258439
 42
0.038295
  0
VERTEX
  8
0
 10
2069.996742
 20
585.651754
 42
0.048341
  0
VERTEX
  8
0
 10
2072.408052
 20
588.320198
 42
0.086427
  0
VERTEX
  8
0
 10
2073.591395
 20
590.674261
 42
0.047699
  0
VERTEX
  8
0
 10
2074.226794
 20
593.840660
 42
0.019751
  0
VERTEX
  8
0
 10
2074.567729
 20
599.226619
 42
0.002173
  0
VERTEX
  8
0
 10
2074.807434
 20
611.598043
 42
0.000000
  0
VERTEX
  8
0
 10
2075.114868
 20
632.055691
 42
0.000000
  0
VERTEX
  8
0
 10
2088.784454
 20
631.777846
 42
0.000000
  0
VERTEX
  8
0
 10
2102.454041
 20
631.500000
 42
0.000000
  0
VERTEX
  8
0
 10
2120.567732
 20
608.621466
 42
0.004766
  0
VERTEX
  8
0
 10
2132.999756
 20
593.223087
 42
0.031749
  0
VERTEX
  8
0
 10
2139.733602
 20
586.026911
 42
0.066204
  0
VERTEX
  8
0
 10
2144.934758
 20
582.291071
 42
0.085663
  0
VERTEX
  8
0
 10
2150.503137
 20
580.447259
 42
0.125219
  0
VERTEX
  8
0
 10
2158.032405
 20
581.204915
 42
0.111025
  0
VERTEX
  8
0
 10
2164.674545
 20
585.467708
 42
0.114618
  0
VERTEX
  8
0
 10
2168.707576
 20
592.033412
 42
0.140355
  0
VERTEX
  8
0
 10
2169.021048
 20
599.200755
 42
0.040924
  0
VERTEX
  8
0
 10
2167.708201
 20
603.202802
 42
0.048543
  0
VERTEX
  8
0
 10
2165.816162
 20
606.701038
 42
0.021675
  0
VERTEX
  8
0
 10
2162.285397
 20
611.481548
 42
0.002242
  0
VERTEX
  8
0
 10
2153.437989
 20
622.333839
 42
0.000000
  0
VERTEX
  8
0
 10
2140.169137
 20
638.461333
 42
0.000000
  0
VERTEX
  8
0
 10
2146.314537
 20
641.744769
 42
0.069361
  0
VERTEX
  8
0
 10
2156.926847
 20
649.469421
 42
0.074902
  0
VERTEX
  8
0
 10
2164.702360
 20
659.622198
 42
0.071267
  0
VERTEX
  8
0
 10
2169.409244
 20
672.061014
 42
0.054919
  0
VERTEX
  8
0
 10
2171.000000
 20
686.500000
 42
0.069525
  0
VERTEX
  8
0
 10
2168.521522
 20
704.238255
 42
0.096745
  0
VERTEX
  8
0
 10
2161.269978
 20
718.494759
 42
0.095290
  0
VERTEX
  8
0
 10
2149.088054
 20
729.122341
 42
0.065614
  0
VERTEX
  8
0
 10
2132.143526
 20
736.212841
 42
0.030416
  0
VERTEX
  8
0
 10
2126.584379
 20
737.365562
 42
0.021469
  0
VERTEX
  8
0
 10
2120.235292
 20
738.007169
 42
0.010497
  0
VERTEX
  8
0
 10
2110.477482
 20
738.366312
 42
0.001505
  0
VERTEX
  8
0
 10
2090.500000
 20
738.621751
 42
0.001920
  0
VERTEX
  8
0
 10
2074.063806
 20
738.719305
 42
0.006441
  0
VERTEX
  8
0
 10
2063.297215
 20
738.603173
 42
0.007352
  0
VERTEX
  8
0
 10
2055.907714
 20
738.319496
 42
0.064987
  0
SEQEND
  0
POLYLINE
  8
0
 66
1
 70
1
  0
VERTEX
  8
0
 10
2118.900139
 20
705.927996
 42
-0.053039
  0
VERTEX
  8
0
 10
2123.327150
 20
704.474476
 42
-0.044593
  0
VERTEX
  8
0
 10
2127.632385
 20
702.053029
 42
-0.046290
  0
VERTEX
  8
0
 10
2131.243263
 20
699.048570
 42
-0.076913
  0
VERTEX
  8
0
 10
2133.573655
 20
695.857566
 42
-0.067049
  0
VERTEX
  8
0
 10
2134.945818
 20
692.019481
 42
-0.032320
  0
VERTEX
  8
0
 10
2135.700999
 20
686.841922
 42
-0.032320
  0
VERTEX
  8
0
 10
2135.782560
 20
681.614157
 42
-0.067542
  0
VERTEX
  8
0
 10
2135.039732
 20
677.620390
 42
-0.055222
  0
VERTEX
  8
0
 10
2133.313357
 20
673.847216
 42
-0.053601
  0
VERTEX
  8
0
 10
2130.788480
 20
670.501922
 42
-0.051474
  0
VERTEX
  8
0
 10
2127.507295
 20
667.657015
 42
-0.043939
  0
VERTEX
  8
0
 10
2123.540865
 20
665.366871
 42
-0.042442
  0
VERTEX
  8
0
 10
2119.883174
 20
664.027698
 42
-0.044624
  0
VERTEX
  8
0
 10
2116.112808
 20
663.353500
 42
-0.019734
  0
VERTEX
  8
0
 10
2110.301266
 20
663.072631
 42
-0.002095
  0
VERTEX
  8
0
 10
2096.750000
 20
663.009769
 42
0.000000
  0
VERTEX
  8
0
 10
2075.000000
 20
663.000000
 42
0.000000
  0
VERTEX
  8
0
 10
2075.000000
 20
685.000000
 42
0.000000
  0
VERTEX
  8
0
 10
2075.000000
 20
707.000000
 42
0.000000
  0
VERTEX
  8
0
 10
2094.450779
 20
707.000000
 42
-0.005027
  0
VERTEX
  8
0
 10
2102.264314
 20
706.921443
 42
-0.005928
  0
VERTEX
  8
0
 10
2109.656225
 20
706.685099
 42
-0.005234
  0
VERTEX
  8
0
 10
2115.886671
 20
706.346539
 42
-0.036643
  0
SEQEND
  0
POLYLINE
  8
0
 66
1
 70
1
  0
VERTEX
  8
0
 10
1520.425454
 20
523.558652
 42
0.132688
  0
VERTEX
  8
0
 10
1518.276729
 20
521.863741
 42
0.036895
  0
VERTEX
  8
0
 10
1515.958298
 20
518.209222
 42
0.016313
  0
VERTEX
  8
0
 10
1512.609266
 20
511.431741
 42
0.001900
  0
VERTEX
  8
0
 10
1505.675454
 20
496.009730
 42
0.001690
  0
VERTEX
  8
0
 10
1501.200142
 20
485.861648
 42
0.002653
  0
VERTEX
  8
0
 10
1497.429665
 20
477.106621
 42
0.000691
  0
VERTEX
  8
0
 10
1494.191649
 20
469.447344
 42
0.099978
  0
VERTEX
  8
0
 10
1494.000000
 20
468.498467
 42
0.140057
  0
VERTEX
  8
0
 10
1494.538243
 20
466.614650
 42
0.069603
  0
VERTEX
  8
0
 10
1496.143150
 20
464.692098
 42
0.068234
  0
VERTEX
  8
0
 10
1498.264593
 20
463.240846
 42
0.116449
  0
VERTEX
  8
0
 10
1500.343564
 20
462.750000
 42
0.093622
  0
VERTEX
  8
0
 10
1502.848349
 20
463.223155
 42
0.104168
  0
VERTEX
  8
0
 10
1504.902223
 20
464.571693
 42
0.075154
  0
VERTEX
  8
0
 10
1506.700944
 20
467.027347
 42
0.028008
  0
VERTEX
  8
0
 10
1508.473542
 20
470.931818
 42
0.000000
  0
VERTEX
  8
0
 10
1510.440282
 20
476.000000
 42
0.000000
  0
VERTEX
  8
0
 10
1523.775170
 20
476.000000
 42
0.000000
  0
VERTEX
  8
0
 10
1537.110058
 20
476.000000
 42
0.000000
  0
VERTEX
  8
0
 10
1539.449556
 20
470.709979
 42
0.014542
  0
VERTEX
  8
0
 10
1540.463293
 20
468.586880
 42
0.015719
  0
VERTEX
  8
0
 10
1541.574339
 20
466.581752
 42
0.015386
  0
VERTEX
  8
0
 10
1542.630109
 20
464.928036
 42
0.069891
  0
VERTEX
  8
0
 10
1543.397606
 20
464.084979
 42
0.154983
  0
VERTEX
  8
0
 10
1546.430190
 20
462.855390
 42
0.113294
  0
VERTEX
  8
0
 10
1550.048017
 20
463.394560
 42
0.119319
  0
VERTEX
  8
0
 10
1552.933026
 20
465.415607
 42
0.182537
  0
VERTEX
  8
0
 10
1554.000000
 20
468.240849
 42
0.103349
  0
VERTEX
  8
0
 10
1553.256035
 20
471.801689
 42
0.001053
  0
VERTEX
  8
0
 10
1542.868481
 20
495.439784
 42
0.001126
  0
VERTEX
  8
0
 10
1532.419016
 20
518.940229
 42
0.095659
  0
VERTEX
  8
0
 10
1530.184017
 20
522.128604
 42
0.080583
  0
VERTEX
  8
0
 10
1528.137531
 20
523.552402
 42
0.075525
  0
VERTEX
  8
0
 10
1525.699917
 20
524.296495
 42
0.072441
  0
VERTEX
  8
0
 10
1523.059890
 20
524.298813
 42
0.065164
  0
SEQEND
  0
POLYLINE
  8
0
 66
1
 70
1
  0
VERTEX
  8
0
 10
1528.400086
 20
497.250000
 42
0.000000
  0
VERTEX
  8
0
 10
1531.924143
 20
489.000000
 42
0.000000
  0
VERTEX
  8
0
 10
1524.037914
 20
489.000000
 42
0.000000
  0
VERTEX
  8
0
 10
1516.151685
 20
489.000000
 42
0.000000
  0
VERTEX
  8
0
 10
1519.825843
 20
497.931280
 42
-0.008711
  0
VERTEX
  8
0
 10
1521.284375
 20
501.308290
 42
-0.015316
  0
VERTEX
  8
0
 10
1522.622821
 20
504.038870
 42
-0.009921
  0
VERTEX
  8
0
 10
1523.780574
 20
506.127131
 42
-0.490852
  0
VERTEX
  8
0
 10
1524.188015
 20
506.181280
 42
-0.084626
  0
VERTEX
  8
0
 10
1524.580533
 20
505.633167
 42
-0.002985
  0
VERTEX
  8
0
 10
1525.709117
 20
503.276688
 42
-0.005460
  0
VERTEX
  8
0
 10
1526.999911
 20
500.460380
 42
-0.003785
  0
SEQEND
  0
POLYLINE
  8
0
 66
1
 70
1
  0
VERTEX
  8
0
 10
1992.374274
 20
524.215736
 42
0.066498
  0
VERTEX
  8
0
 10
1991.413770
 20
523.936148
 42
0.032018
  0
VERTEX
  8
0
 10
1990.274342
 20
523.342844
 42
0.031053
  0
VERTEX
  8
0
 10
1989.146964
 20
522.561302
 42
0.038676
  0
VERTEX
  8
0
 10
1988.210635
 20
521.696734
 42
0.072859
  0
VERTEX
  8
0
 10
1987.023138
 20
519.970065
 42
0.002564
  0
VERTEX
  8
0
 10
1983.476499
 20
512.662681
 42
0.004712
  0
VERTEX
  8
0
 10
1979.401668
 20
503.946368
 42
0.003274
  0
VERTEX
  8
0
 10
1974.956177
 20
494.027287
 42
0.001623
  0
VERTEX
  8
0
 10
1968.164665
 20
478.467015
 42
0.017324
  0
VERTEX
  8
0
 10
1965.645982
 20
472.042905
 42
0.044301
  0
VERTEX
  8
0
 10
1964.712750
 20
468.395078
 42
0.171596
  0
VERTEX
  8
0
 10
1965.119815
 20
466.131944
 42
0.130662
  0
VERTEX
  8
0
 10
1968.028622
 20
463.177996
 42
0.212191
  0
VERTEX
  8
0
 10
1971.469232
 20
462.780345
 42
0.146376
  0
VERTEX
  8
0
 10
1975.062312
 20
465.205947
 42
0.058813
  0
VERTEX
  8
0
 10
1978.286975
 20
470.250000
 42
0.000000
  0
VERTEX
  8
0
 10
1981.073951
 20
476.000000
 42
0.000000
  0
VERTEX
  8
0
 10
1994.352962
 20
476.000000
 42
0.000000
  0
VERTEX
  8
0
 10
2007.631972
 20
476.000000
 42
0.000000
  0
VERTEX
  8
0
 10
2009.884366
 20
470.565694
 42
0.013443
  0
VERTEX
  8
0
 10
2010.851950
 20
468.397891
 42
0.015291
  0
VERTEX
  8
0
 10
2011.896563
 20
466.377949
 42
0.014573
  0
VERTEX
  8
0
 10
2012.880677
 20
464.724960
 42
0.078141
  0
VERTEX
  8
0
 10
2013.571459
 20
463.940694
 42
0.161884
  0
VERTEX
  8
0
 10
2016.565553
 20
462.773395
 42
0.116476
  0
VERTEX
  8
0
 10
2020.120909
 20
463.424587
 42
0.118930
  0
VERTEX
  8
0
 10
2022.955660
 20
465.578712
 42
0.172749
  0
VERTEX
  8
0
 10
2024.000000
 20
468.511223
 42
0.102897
  0
VERTEX
  8
0
 10
2023.271629
 20
472.013056
 42
0.001042
  0
VERTEX
  8
0
 10
2013.073605
 20
495.334240
 42
0.001308
  0
VERTEX
  8
0
 10
2002.909179
 20
518.284049
 42
0.079168
  0
VERTEX
  8
0
 10
2000.455561
 20
522.049105
 42
0.080064
  0
VERTEX
  8
0
 10
1998.962983
 20
523.244890
 42
0.063513
  0
VERTEX
  8
0
 10
1997.048337
 20
524.029231
 42
0.057532
  0
VERTEX
  8
0
 10
1994.812836
 20
524.360253
 42
0.045663
  0
SEQEND
  0
POLYLINE
  8
0
 66
1
 70
1
  0
VERTEX
  8
0
 10
1998.913480
 20
496.500000
 42
0.000000
  0
VERTEX
  8
0
 10
2001.850892
 20
489.500000
 42
0.000000
  0
VERTEX
  8
0
 10
1994.805020
 20
489.203760
 42
-0.006954
  0
VERTEX
  8
0
 10
1992.068395
 20
489.126808
 42
-0.010453
  0
VERTEX
  8
0
 10
1989.680601
 20
489.142811
 42
-0.005650
  0
VERTEX
  8
0
 10
1987.686520
 20
489.220435
 42
-0.185896
  0
VERTEX
  8
0
 10
1987.254394
 20
489.412273
 42
-0.277973
  0
VERTEX
  8
0
 10
1987.072470
 20
490.145694
 42
-0.012522
  0
VERTEX
  8
0
 10
1987.935228
 20
492.713349
 42
-0.013004
  0
VERTEX
  8
0
 10
1989.419382
 20
496.481531
 42
-0.003325
  0
VERTEX
  8
0
 10
1992.019921
 20
502.500000
 42
-0.006795
  0
VERTEX
  8
0
 10
1993.320488
 20
505.350071
 42
-0.089375
  0
VERTEX
  8
0
 10
1993.991441
 20
506.289961
 42
-0.401054
  0
VERTEX
  8
0
 10
1994.535440
 20
506.295249
 42
-0.101344
  0
VERTEX
  8
0
 10
1995.098016
 20
505.500000
 42
-0.002739
  0
VERTEX
  8
0
 10
1995.605737
 20
504.326103
 42
-0.000441
  0
VERTEX
  8
0
 10
1996.581005
 20
502.031250
 42
-0.000487
  0
VERTEX
  8
0
 10
1997.724488
 20
499.326648
 42
-0.000428
  0
SEQEND
  0
POLYLINE
  8
0
 66
1
 70
1
  0
VERTEX
  8
0
 10
2067.137443
 20
523.964776
 42
0.071484
  0
VERTEX
  8
0
 10
2059.588324
 20
521.243875
 42
0.060496
  0
VERTEX
  8
0
 10
2052.626307
 20
516.383147
 42
0.061300
  0
VERTEX
  8
0
 10
2047.116065
 20
510.075205
 42
0.078285
  0
VERTEX
  8
0
 10
2043.837629
 20
503.098803
 42
0.046928
  0
VERTEX
  8
0
 10
2042.774555
 20
497.549237
 42
0.036045
  0
VERTEX
  8
0
 10
2042.629959
 20
491.376494
 42
0.036513
  0
VERTEX
  8
0
 10
2043.365467
 20
485.359348
 42
0.053935
  0
VERTEX
  8
0
 10
2044.948069
 20
480.286236
 42
0.119593
  0
VERTEX
  8
0
 10
2053.002940
 20
469.651184
 42
0.105739
  0
VERTEX
  8
0
 10
2065.394072
 20
463.297047
 42
0.104408
  0
VERTEX
  8
0
 10
2079.435687
 20
462.522918
 42
0.113743
  0
VERTEX
  8
0
 10
2092.115525
 20
467.580059
 42
0.051248
  0
VERTEX
  8
0
 10
2094.802474
 20
469.882192
 42
0.091966
  0
VERTEX
  8
0
 10
2096.380780
 20
472.309403
 42
0.109165
  0
VERTEX
  8
0
 10
2096.829860
 20
474.839443
 42
0.096732
  0
VERTEX
  8
0
 10
2096.206895
 20
477.445260
 42
0.126504
  0
VERTEX
  8
0
 10
2094.492153
 20
479.569215
 42
0.148697
  0
VERTEX
  8
0
 10
2092.066558
 20
480.440079
 42
0.101692
  0
VERTEX
  8
0
 10
2088.822401
 20
479.939078
 42
0.039494
  0
VERTEX
  8
0
 10
2084.682024
 20
478.015819
 42
-0.073089
  0
VERTEX
  8
0
 10
2077.628162
 20
475.297015
 42
-0.098121
  0
VERTEX
  8
0
 10
2070.796496
 20
475.116929
 42
-0.103107
  0
VERTEX
  8
0
 10
2064.661699
 20
477.529964
 42
-0.088456
  0
VERTEX
  8
0
 10
2059.608819
 20
482.300734
 42
-0.056093
  0
VERTEX
  8
0
 10
2058.606750
 20
484.028430
 42
-0.044989
  0
VERTEX
  8
0
 10
2057.922675
 20
486.068074
 42
-0.033873
  0
VERTEX
  8
0
 10
2057.482270
 20
488.697283
 42
-0.013968
  0
VERTEX
  8
0
 10
2057.228497
 20
492.300734
 42
-0.043435
  0
VERTEX
  8
0
 10
2057.503139
 20
498.476606
 42
-0.083438
  0
VERTEX
  8
0
 10
2058.953117
 20
503.201677
 42
-0.093444
  0
VERTEX
  8
0
 10
2061.726676
 20
506.845690
 42
-0.066707
  0
VERTEX
  8
0
 10
2065.966006
 20
509.750000
 42
-0.051111
  0
VERTEX
  8
0
 10
2070.296392
 20
511.406209
 42
-0.076577
  0
VERTEX
  8
0
 10
2074.312965
 20
511.851082
 42
-0.069015
  0
VERTEX
  8
0
 10
2078.573570
 20
511.074213
 42
-0.033945
  0
VERTEX
  8
0
 10
2083.688091
 20
508.995553
 42
0.011610
  0
VERTEX
  8
0
 10
2087.008898
 20
507.469840
 42
0.045250
  0
VERTEX
  8
0
 10
2089.154615
 20
506.765861
 42
0.072365
  0
VERTEX
  8
0
 10
2090.825236
 20
506.628389
 42
0.075379
  0
VERTEX
  8
0
 10
2092.441136
 20
506.977620
 42
0.106492
  0
VERTEX
  8
0
 10
2094.472626
 20
508.295574
 42
0.093620
  0
VERTEX
  8
0
 10
2095.894563
 20
510.390102
 42
0.092593
  0
VERTEX
  8
0
 10
2096.464668
 20
512.880357
 42
0.101274
  0
VERTEX
  8
0
 10
2096.066445
 20
515.325236
 42
0.174297
  0
VERTEX
  8
0
 10
2092.453724
 20
519.541602
 42
0.056813
  0
VERTEX
  8
0
 10
2084.800918
 20
522.810753
 42
0.053635
  0
VERTEX
  8
0
 10
2075.639229
 20
524.506763
 42
0.069886
  0
SEQEND
  0
POLYLINE
  8
0
 66
1
 70
1
  0
VERTEX
  8
0
 10
909.315372
 20
522.993020
 42
0.051227
  0
VERTEX
  8
0
 10
908.400920
 20
522.510681
 42
0.033962
  0
VERTEX
  8
0
 10
907.459525
 20
521.786616
 42
0.034118
  0
VERTEX
  8
0
 10
906.632260
 20
520.948780
 42
0.054916
  0
VERTEX
  8
0
 10
906.065372
 20
520.122148
 42
0.121528
  0
VERTEX
  8
0
 10
905.067503
 20
516.206444
 42
0.001914
  0
VERTEX
  8
0
 10
904.978668
 20
493.000000
 42
0.001914
  0
VERTEX
  8
0
 10
905.067503
 20
469.793556
 42
0.121528
  0
VERTEX
  8
0
 10
906.065372
 20
465.877852
 42
0.156269
  0
VERTEX
  8
0
 10
908.503472
 20
463.516689
 42
0.130790
  0
VERTEX
  8
0
 10
912.049183
 20
462.800769
 42
0.127375
  0
VERTEX
  8
0
 10
915.553578
 20
463.939793
 42
0.144909
  0
VERTEX
  8
0
 10
917.862164
 20
466.596828
 42
0.056843
  0
VERTEX
  8
0
 10
918.301480
 20
467.949812
 42
0.016639
  0
VERTEX
  8
0
 10
918.665761
 20
470.109209
 42
0.016484
  0
VERTEX
  8
0
 10
918.916353
 20
472.584790
 42
0.016981
  0
VERTEX
  8
0
 10
919.000000
 20
475.047053
 42
0.000000
  0
VERTEX
  8
0
 10
919.000000
 20
481.000000
 42
0.000000
  0
VERTEX
  8
0
 10
925.818499
 20
481.000000
 42
0.068313
  0
VERTEX
  8
0
 10
937.887462
 20
482.656669
 42
0.116567
  0
VERTEX
  8
0
 10
946.748673
 20
487.554273
 42
0.133729
  0
VERTEX
  8
0
 10
951.717884
 20
495.342617
 42
0.105272
  0
VERTEX
  8
0
 10
952.643510
 20
505.346514
 42
0.078460
  0
VERTEX
  8
0
 10
950.849897
 20
511.725253
 42
0.088072
  0
VERTEX
  8
0
 10
947.219651
 20
516.959383
 42
0.084756
  0
VERTEX
  8
0
 10
941.880108
 20
520.768098
 42
0.066513
  0
VERTEX
  8
0
 10
935.113510
 20
522.992919
 42
0.033410
  0
VERTEX
  8
0
 10
929.194036
 20
523.694886
 42
0.012810
  0
VERTEX
  8
0
 10
920.903786
 20
523.907341
 42
0.009961
  0
VERTEX
  8
0
 10
912.825609
 20
523.746430
 42
0.086005
  0
SEQEND
  0
POLYLINE
  8
0
 66
1
 70
1
  0
VERTEX
  8
0
 10
937.097959
 20
508.127353
 42
-0.095678
  0
VERTEX
  8
0
 10
938.536183
 20
505.430201
 42
-0.085361
  0
VERTEX
  8
0
 10
938.944448
 20
502.277957
 42
-0.083203
  0
VERTEX
  8
0
 10
938.275206
 20
499.099656
 42
-0.084401
  0
VERTEX
  8
0
 10
936.607990
 20
496.330650
 42
-0.049984
  0
VERTEX
  8
0
 10
934.990949
 20
494.792050
 42
-0.088764
  0
VERTEX
  8
0
 10
933.367712
 20
493.939543
 42
-0.054495
  0
VERTEX
  8
0
 10
931.049236
 20
493.475240
 42
-0.009578
  0
VERTEX
  8
0
 10
926.607990
 20
493.165586
 42
0.000000
  0
VERTEX
  8
0
 10
919.000000
 20
492.781400
 42
0.000000
  0
VERTEX
  8
0
 10
919.000000
 20
501.996585
 42
0.000000
  0
VERTEX
  8
0
 10
919.000000
 20
511.211770
 42
0.000000
  0
VERTEX
  8
0
 10
927.097959
 20
510.844022
 42
-0.008516
  0
VERTEX
  8
0
 10
931.677722
 20
510.557810
 42
-0.046488
  0
VERTEX
  8
0
 10
934.120825
 20
510.132508
 42
-0.083892
  0
VERTEX
  8
0
 10
935.729846
 20
509.389399
 42
-0.072650
  0
SEQEND
  0
POLYLINE
  8
0
 66
1
 70
1
  0
VERTEX
  8
0
 10
979.315372
 20
522.993020
 42
0.169178
  0
VERTEX
  8
0
 10
976.927934
 20
520.906690
 42
0.093881
  0
VERTEX
  8
0
 10
975.659407
 20
517.205721
 42
0.032584
  0
VERTEX
  8
0
 10
975.108783
 20
510.146996
 42
0.003176
  0
VERTEX
  8
0
 10
975.000000
 20
493.020287
 42
0.000000
  0
VERTEX
  8
0
 10
975.000000
 20
467.909091
 42
0.000000
  0
VERTEX
  8
0
 10
977.454545
 20
465.454545
 42
0.088804
  0
VERTEX
  8
0
 10
979.518794
 20
464.017157
 42
0.079527
  0
VERTEX
  8
0
 10
982.034467
 20
463.314439
 42
0.026579
  0
VERTEX
  8
0
 10
986.462197
 20
463.046112
 42
0.001846
  0
VERTEX
  8
0
 10
998.954545
 20
463.000000
 42
0.002175
  0
VERTEX
  8
0
 10
1010.553496
 20
463.050467
 42
0.021515
  0
VERTEX
  8
0
 10
1015.421824
 20
463.302506
 42
0.055310
  0
VERTEX
  8
0
 10
1018.165283
 20
463.873659
 42
0.117951
  0
VERTEX
  8
0
 10
1020.000000
 20
465.000000
 42
0.069596
  0
VERTEX
  8
0
 10
1021.371997
 20
466.818208
 42
0.113111
  0
VERTEX
  8
0
 10
1021.908319
 20
468.667996
 42
0.107977
  0
VERTEX
  8
0
 10
1021.595615
 20
470.628305
 42
0.059497
  0
VERTEX
  8
0
 10
1020.443296
 20
472.777494
 42
0.118741
  0
VERTEX
  8
0
 10
1019.012450
 20
474.041097
 42
0.088515
  0
VERTEX
  8
0
 10
1016.999971
 20
474.686774
 42
0.030861
  0
VERTEX
  8
0
 10
1013.350723
 20
474.950670
 42
0.002622
  0
VERTEX
  8
0
 10
1003.943296
 20
475.000000
 42
0.000000
  0
VERTEX
  8
0
 10
989.000000
 20
475.000000
 42
0.000000
  0
VERTEX
  8
0
 10
989.000000
 20
481.000000
 42
0.000000
  0
VERTEX
  8
0
 10
989.000000
 20
487.000000
 42
0.000000
  0
VERTEX
  8
0
 10
1001.045455
 20
487.000000
 42
0.003917
  0
VERTEX
  8
0
 10
1008.596166
 20
487.059152
 42
0.038886
  0
VERTEX
  8
0
 10
1011.748797
 20
487.354465
 42
0.089066
  0
VERTEX
  8
0
 10
1013.738063
 20
488.077886
 42
0.064826
  0
VERTEX
  8
0
 10
1015.607558
 20
489.516649
 42
0.031906
  0
VERTEX
  8
0
 10
1016.757233
 20
490.823224
 42
0.071854
  0
VERTEX
  8
0
 10
1017.404889
 20
491.969338
 42
0.089731
  0
VERTEX
  8
0
 10
1017.620854
 20
493.080846
 42
0.076183
  0
VERTEX
  8
0
 10
1017.454780
 20
494.266649
 42
0.088192
  0
VERTEX
  8
0
 10
1016.014289
 20
497.122593
 42
0.149284
  0
VERTEX
  8
0
 10
1013.869456
 20
498.690826
 42
0.068763
  0
VERTEX
  8
0
 10
1010.033721
 20
499.458984
 42
0.008438
  0
VERTEX
  8
0
 10
1001.467106
 20
499.831557
 42
0.000000
  0
VERTEX
  8
0
 10
989.000000
 20
500.163113
 42
0.000000
  0
VERTEX
  8
0
 10
989.000000
 20
505.581557
 42
0.000000
  0
VERTEX
  8
0
 10
989.000000
 20
511.000000
 42
0.000000
  0
VERTEX
  8
0
 10
1002.777494
 20
511.000000
 42
0.009834
  0
VERTEX
  8
0
 10
1013.376635
 20
511.208484
 42
0.080785
  0
VERTEX
  8
0
 10
1018.095345
 20
512.167738
 42
0.205936
  0
VERTEX
  8
0
 10
1020.239329
 20
514.238251
 42
0.120664
  0
VERTEX
  8
0
 10
1020.804701
 20
517.822025
 42
0.136915
  0
VERTEX
  8
0
 10
1019.573732
 20
521.134145
 42
0.170595
  0
VERTEX
  8
0
 10
1016.889569
 20
522.989800
 42
0.061024
  0
VERTEX
  8
0
 10
1011.405680
 20
523.790891
 42
0.006505
  0
VERTEX
  8
0
 10
998.500000
 20
523.921872
 42
0.004768
  0
VERTEX
  8
0
 10
991.828752
 20
523.839161
 42
0.006611
  0
VERTEX
  8
0
 10
985.852015
 20
523.628956
 42
0.004290
  0
VERTEX
  8
0
 10
980.853819
 20
523.343959
 42
0.079536
  0
SEQEND
  0
POLYLINE
  8
0
 66
1
 70
1
  0
VERTEX
  8
0
 10
1051.000000
 20
523.290565
 42
0.037571
  0
VERTEX
  8
0
 10
1050.301608
 20
522.972415
 42
0.016473
  0
VERTEX
  8
0
 10
1049.426563
 20
522.453218
 42
0.016194
  0
VERTEX
  8
0
 10
1048.529848
 20
521.838645
 42
0.020859
  0
VERTEX
  8
0
 10
1047.750000
 20
521.214525
 42
0.169443
  0
VERTEX
  8
0
 10
1046.748614
 20
519.459297
 42
0.030213
  0
VERTEX
  8
0
 10
1046.280672
 20
515.653883
 42
0.013974
  0
VERTEX
  8
0
 10
1046.047859
 20
508.809100
 42
0.001514
  0
VERTEX
  8
0
 10
1046.000000
 20
493.000000
 42
0.001349
  0
VERTEX
  8
0
 10
1046.044834
 20
476.378897
 42
0.015897
  0
VERTEX
  8
0
 10
1046.285096
 20
469.920673
 42
0.042563
  0
VERTEX
  8
0
 10
1046.824285
 20
466.448347
 42
0.150140
  0
VERTEX
  8
0
 10
1047.966864
 20
464.529988
 42
0.054287
  0
VERTEX
  8
0
 10
1048.907548
 20
463.848295
 42
0.036132
  0
VERTEX
  8
0
 10
1050.109804
 20
463.272871
 42
0.036272
  0
VERTEX
  8
0
 10
1051.373740
 20
462.879602
 42
0.057347
  0
VERTEX
  8
0
 10
1052.500000
 20
462.750000
 42
0.102422
  0
VERTEX
  8
0
 10
1055.605897
 20
463.392972
 42
0.162539
  0
VERTEX
  8
0
 10
1057.610204
 20
465.188555
 42
0.102625
  0
VERTEX
  8
0
 10
1058.693271
 20
468.529628
 42
0.027243
  0
VERTEX
  8
0
 10
1059.000000
 20
474.154988
 42
0.000000
  0
VERTEX
  8
0
 10
1059.000000
 20
482.000000
 42
0.000000
  0
VERTEX
  8
0
 10
1064.314993
 20
482.000000
 42
0.000000
  0
VERTEX
  8
0
 10
1069.629987
 20
482.000000
 42
0.000000
  0
VERTEX
  8
0
 10
1076.881928
 20
472.943015
 42
0.011822
  0
VERTEX
  8
0
 10
1082.012748
 20
466.836782
 42
0.060860
  0
VERTEX
  8
0
 10
1085.308880
 20
463.906126
 42
0.120095
  0
VERTEX
  8
0
 10
1088.066671
 20
462.848656
 42
0.122524
  0
VERTEX
  8
0
 10
1090.979648
 20
463.190211
 42
0.127848
  0
VERTEX
  8
0
 10
1094.070817
 20
465.373163
 42
0.194419
  0
VERTEX
  8
0
 10
1095.084427
 20
468.456947
 42
0.119775
  0
VERTEX
  8
0
 10
1093.783954
 20
472.589260
 42
0.037709
  0
VERTEX
  8
0
 10
1090.000000
 20
477.904277
 42
-0.006412
  0
VERTEX
  8
0
 10
1088.086814
 20
480.264101
 42
-0.009557
  0
VERTEX
  8
0
 10
1086.480065
 20
482.380685
 42
-0.005137
  0
VERTEX
  8
0
 10
1085.186402
 20
484.193046
 42
-0.166036
  0
VERTEX
  8
0
 10
1085.038520
 20
484.706193
 42
-0.185444
  0
VERTEX
  8
0
 10
1085.221593
 20
485.121475
 42
-0.019703
  0
VERTEX
  8
0
 10
1086.009097
 20
485.854319
 42
-0.022204
  0
VERTEX
  8
0
 10
1087.055630
 20
486.676072
 42
-0.016069
  0
VERTEX
  8
0
 10
1088.288520
 20
487.500000
 42
0.085254
  0
VERTEX
  8
0
 10
1091.310221
 20
490.188368
 42
0.056228
  0
VERTEX
  8
0
 10
1093.791227
 20
494.134461
 42
0.053726
  0
VERTEX
  8
0
 10
1095.434983
 20
498.757965
 42
0.059720
  0
VERTEX
  8
0
 10
1095.978038
 20
503.461890
 42
0.078932
  0
VERTEX
  8
0
 10
1094.786440
 20
510.757701
 42
0.103458
  0
VERTEX
  8
0
 10
1091.406596
 20
516.584560
 42
0.100022
  0
VERTEX
  8
0
 10
1085.871794
 20
520.702139
 42
0.069590
  0
VERTEX
  8
0
 10
1078.411238
 20
523.020392
 42
0.029369
  0
VERTEX
  8
0
 10
1072.457152
 20
523.639435
 42
0.008755
  0
VERTEX
  8
0
 10
1063.319200
 20
523.889564
 42
0.005772
  0
VERTEX
  8
0
 10
1054.156664
 20
523.874090
 42
0.084983
  0
SEQEND
  0
POLYLINE
  8
0
 66
1
 70
1
  0
VERTEX
  8
0
 10
1079.365141
 20
508.927420
 42
-0.044633
  0
VERTEX
  8
0
 10
1080.608619
 20
507.755636
 42
-0.071049
  0
VERTEX
  8
0
 10
1081.413096
 20
506.538411
 42
-0.069607
  0
VERTEX
  8
0
 10
1081.854833
 20
505.126207
 42
-0.041065
  0
VERTEX
  8
0
 10
1082.000000
 20
503.361678
 42
-0.093761
  0
VERTEX
  8
0
 10
1081.143556
 20
498.834682
 42
-0.165932
  0
VERTEX
  8
0
 10
1078.713488
 20
495.966057
 42
-0.107573
  0
VERTEX
  8
0
 10
1074.156142
 20
494.431549
 42
-0.027623
  0
VERTEX
  8
0
 10
1066.350777
 20
494.000000
 42
0.000000
  0
VERTEX
  8
0
 10
1059.000000
 20
494.000000
 42
0.000000
  0
VERTEX
  8
0
 10
1059.000000
 20
502.500000
 42
0.000000
  0
VERTEX
  8
0
 10
1059.000000
 20
511.000000
 42
0.000000
  0
VERTEX
  8
0
 10
1067.865141
 20
511.000000
 42
-0.008258
  0
VERTEX
  8
0
 10
1072.728371
 20
510.919677
 42
-0.036336
  0
VERTEX
  8
0
 10
1075.579712
 20
510.617249
 42
-0.060145
  0
VERTEX
  8
0
 10
1077.586216
 20
509.999958
 42
-0.062058
  0
SEQEND
  0
POLYLINE
  8
0
 66
1
 70
1
  0
VERTEX
  8
0
 10
1119.500000
 20
522.835723
 42
0.040365
  0
VERTEX
  8
0
 10
1117.785454
 20
521.642331
 42
0.087931
  0
VERTEX
  8
0
 10
1116.748461
 20
520.427621
 42
0.089178
  0
VERTEX
  8
0
 10
1116.200531
 20
518.941984
 42
0.042414
  0
VERTEX
  8
0
 10
1116.015313
 20
516.904988
 42
0.114742
  0
VERTEX
  8
0
 10
1116.640236
 20
514.143929
 42
0.156227
  0
VERTEX
  8
0
 10
1118.389579
 20
512.307141
 42
0.097279
  0
VERTEX
  8
0
 10
1121.601440
 20
511.292862
 42
0.027991
  0
VERTEX
  8
0
 10
1126.828741
 20
511.000000
 42
0.000000
  0
VERTEX
  8
0
 10
1134.000000
 20
511.000000
 42
0.000000
  0
VERTEX
  8
0
 10
1134.000000
 20
490.649223
 42
0.004427
  0
VERTEX
  8
0
 10
1134.073944
 20
482.298574
 42
0.007010
  0
VERTEX
  8
0
 10
1134.300971
 20
475.145832
 42
0.005568
  0
VERTEX
  8
0
 10
1134.628595
 20
469.392572
 42
0.066952
  0
VERTEX
  8
0
 10
1135.072538
 20
467.221761
 42
0.144437
  0
VERTEX
  8
0
 10
1137.238205
 20
464.203057
 42
0.138061
  0
VERTEX
  8
0
 10
1140.734238
 20
462.777425
 42
0.142864
  0
VERTEX
  8
0
 10
1144.369813
 20
463.405219
 42
0.157431
  0
VERTEX
  8
0
 10
1146.934628
 20
465.877852
 42
0.106663
  0
VERTEX
  8
0
 10
1147.401698
 20
467.509045
 42
0.005289
  0
VERTEX
  8
0
 10
1147.714573
 20
473.112935
 42
0.007541
  0
VERTEX
  8
0
 10
1147.931443
 20
480.312517
 42
0.003758
  0
VERTEX
  8
0
 10
1148.000000
 20
489.434259
 42
0.000000
  0
VERTEX
  8
0
 10
1148.000000
 20
511.000000
 42
0.000000
  0
VERTEX
  8
0
 10
1155.500000
 20
511.000000
 42
0.010148
  0
VERTEX
  8
0
 10
1159.527020
 20
511.081745
 42
0.041750
  0
VERTEX
  8
0
 10
1161.945833
 20
511.383333
 42
0.068768
  0
VERTEX
  8
0
 10
1163.616805
 20
511.983488
 42
0.075961
  0
VERTEX
  8
0
 10
1165.000000
 20
513.000000
 42
0.075282
  0
VERTEX
  8
0
 10
1166.408686
 20
514.911428
 42
0.118997
  0
VERTEX
  8
0
 10
1166.905959
 20
516.875654
 42
0.111895
  0
VERTEX
  8
0
 10
1166.462639
 20
518.937482
 42
0.061464
  0
VERTEX
  8
0
 10
1165.090145
 20
521.139216
 42
0.118708
  0
VERTEX
  8
0
 10
1163.281866
 20
522.526147
 42
0.076072
  0
VERTEX
  8
0
 10
1160.716821
 20
523.225350
 42
0.023944
  0
VERTEX
  8
0
 10
1155.944741
 20
523.542641
 42
0.001626
  0
VERTEX
  8
0
 10
1142.340145
 20
523.750260
 42
0.003386
  0
VERTEX
  8
0
 10
1132.719726
 20
523.800632
 42
0.009621
  0
VERTEX
  8
0
 10
1126.016053
 20
523.661325
 42
0.009387
  0
VERTEX
  8
0
 10
1121.246013
 20
523.380559
 42
0.112929
  0
SEQEND
  0
POLYLINE
  8
0
 66
1
 70
1
  0
VERTEX
  8
0
 10
1191.000000
 20
522.000000
 42
0.135003
  0
VERTEX
  8
0
 10
1189.842032
 20
519.963488
 42
0.044401
  0
VERTEX
  8
0
 10
1189.288365
 20
516.530147
 42
0.016391
  0
VERTEX
  8
0
 10
1189.045406
 20
510.199950
 42
0.001396
  0
VERTEX
  8
0
 10
1189.000000
 20
493.934259
 42
0.002960
  0
VERTEX
  8
0
 10
1189.066318
 20
482.733255
 42
0.006528
  0
VERTEX
  8
0
 10
1189.279311
 20
474.180333
 42
0.004255
  0
VERTEX
  8
0
 10
1189.585765
 20
467.589567
 42
0.109541
  0
VERTEX
  8
0
 10
1190.065372
 20
465.877852
 42
0.156269
  0
VERTEX
  8
0
 10
1192.503472
 20
463.516689
 42
0.130790
  0
VERTEX
  8
0
 10
1196.049183
 20
462.800769
 42
0.127375
  0
VERTEX
  8
0
 10
1199.553578
 20
463.939793
 42
0.144909
  0
VERTEX
  8
0
 10
1201.862164
 20
466.596828
 42
0.069829
  0
VERTEX
  8
0
 10
1202.304698
 20
468.090169
 42
0.012404
  0
VERTEX
  8
0
 10
1202.665761
 20
470.990459
 42
0.013204
  0
VERTEX
  8
0
 10
1202.916512
 20
474.436288
 42
0.011559
  0
VERTEX
  8
0
 10
1203.000000
 20
478.047053
 42
0.000000
  0
VERTEX
  8
0
 10
1203.000000
 20
487.000000
 42
0.000000
  0
VERTEX
  8
0
 10
1215.000000
 20
487.000000
 42
0.000000
  0
VERTEX
  8
0
 10
1227.000000
 20
487.000000
 42
0.000000
  0
VERTEX
  8
0
 10
1227.000000
 20
476.654988
 42
0.005580
  0
VERTEX
  8
0
 10
1227.065464
 20
470.788737
 42
0.034638
  0
VERTEX
  8
0
 10
1227.340547
 20
467.792943
 42
0.071222
  0
VERTEX
  8
0
 10
1227.922258
 20
465.932338
 42
0.097813
  0
VERTEX
  8
0
 10
1228.966864
 20
464.529988
 42
0.054287
  0
VERTEX
  8
0
 10
1229.907548
 20
463.848295
 42
0.036132
  0
VERTEX
  8
0
 10
1231.109804
 20
463.272871
 42
0.036272
  0
VERTEX
  8
0
 10
1232.373740
 20
462.879602
 42
0.057347
  0
VERTEX
  8
0
 10
1233.500000
 20
462.750000
 42
0.057347
  0
VERTEX
  8
0
 10
1234.626260
 20
462.879602
 42
0.036272
  0
VERTEX
  8
0
 10
1235.890196
 20
463.272871
 42
0.036132
  0
VERTEX
  8
0
 10
1237.092452
 20
463.848295
 42
0.054287
  0
VERTEX
  8
0
 10
1238.033136
 20
464.529988
 42
0.150462
  0
VERTEX
  8
0
 10
1239.176342
 20
466.452157
 42
0.042340
  0
VERTEX
  8
0
 10
1239.715107
 20
469.940556
 42
0.015814
  0
VERTEX
  8
0
 10
1239.955237
 20
476.431378
 42
0.001338
  0
VERTEX
  8
0
 10
1240.000000
 20
493.154988
 42
0.001341
  0
VERTEX
  8
0
 10
1239.954984
 20
509.939473
 42
0.015967
  0
VERTEX
  8
0
 10
1239.712749
 20
516.431624
 42
0.043329
  0
VERTEX
  8
0
 10
1239.161070
 20
519.943223
 42
0.136582
  0
VERTEX
  8
0
 10
1238.000000
 20
522.000000
 42
0.086637
  0
VERTEX
  8
0
 10
1236.058561
 20
523.364308
 42
0.097622
  0
VERTEX
  8
0
 10
1233.848988
 20
523.916956
 42
0.093372
  0
VERTEX
  8
0
 10
1231.516370
 20
523.598360
 42
0.072393
  0
VERTEX
  8
0
 10
1229.222506
 20
522.443296
 42
0.096877
  0
VERTEX
  8
0
 10
1227.992822
 20
521.166573
 42
0.097898
  0
VERTEX
  8
0
 10
1227.340470
 20
519.525239
 42
0.041116
  0
VERTEX
  8
0
 10
1227.059147
 20
516.747909
 42
0.004691
  0
VERTEX
  8
0
 10
1227.000000
 20
510.443296
 42
0.000000
  0
VERTEX
  8
0
 10
1227.000000
 20
500.000000
 42
0.000000
  0
VERTEX
  8
0
 10
1215.093707
 20
500.000000
 42
0.000000
  0
VERTEX
  8
0
 10
1203.187415
 20
500.000000
 42
0.000000
  0
VERTEX
  8
0
 10
1202.843707
 20
510.089825
 42
0.005557
  0
VERTEX
  8
0
 10
1202.573556
 20
516.067071
 42
0.041371
  0
VERTEX
  8
0
 10
1202.179881
 20
518.881505
 42
0.087697
  0
VERTEX
  8
0
 10
1201.446903
 20
520.631642
 42
0.079907
  0
VERTEX
  8
0
 10
1200.139216
 20
522.089825
 42
0.075149
  0
VERTEX
  8
0
 10
1197.803399
 20
523.459253
 42
0.097830
  0
VERTEX
  8
0
 10
1195.371999
 20
523.914794
 42
0.102928
  0
VERTEX
  8
0
 10
1193.043730
 20
523.406449
 42
0.091580
  0
SEQEND
  0
POLYLINE
  8
0
 66
1
 70
1
  0
VERTEX
  8
0
 10
1267.454545
 20
521.545455
 42
0.042265
  0
VERTEX
  8
0
 10
1266.515218
 20
520.432322
 42
0.036192
  0
VERTEX
  8
0
 10
1265.721023
 20
519.119594
 42
0.037795
  0
VERTEX
  8
0
 10
1265.174469
 20
517.812980
 42
0.080329
  0
VERTEX
  8
0
 10
1265.000000
 20
516.734016
 42
0.107945
  0
VERTEX
  8
0
 10
1265.414136
 20
514.838086
 42
0.051088
  0
VERTEX
  8
0
 10
1266.690431
 20
512.670750
 42
0.051000
  0
VERTEX
  8
0
 10
1268.388372
 20
510.796943
 42
0.103097
  0
VERTEX
  8
0
 10
1270.101836
 20
509.799388
 42
-0.310678
  0
VERTEX
  8
0
 10
1271.044319
 20
508.550814
 42
-0.127154
  0
VERTEX
  8
0
 10
1270.581228
 20
506.365295
 42
-0.086153
  0
VERTEX
  8
0
 10
1268.831424
 20
503.983626
 42
-0.092639
  0
VERTEX
  8
0
 10
1266.420898
 20
502.402502
 42
0.049173
  0
VERTEX
  8
0
 10
1263.826173
 20
501.004991
 42
0.128203
  0
VERTEX
  8
0
 10
1262.433799
 20
499.428517
 42
0.207303
  0
VERTEX
  8
0
 10
1262.340366
 20
497.863696
 42
0.148642
  0
VERTEX
  8
0
 10
1263.406234
 20
496.444905
 42
0.143044
  0
VERTEX
  8
0
 10
1265.230222
 20
495.784857
 42
0.066102
  0
VERTEX
  8
0
 10
1267.769791
 20
495.960272
 42
0.054853
  0
VERTEX
  8
0
 10
1270.701180
 20
496.901126
 42
0.039989
  0
VERTEX
  8
0
 10
1273.706489
 20
498.543340
 42
0.099244
  0
VERTEX
  8
0
 10
1276.124444
 20
500.925205
 42
0.051285
  0
VERTEX
  8
0
 10
1278.139646
 20
504.679805
 42
0.047582
  0
VERTEX
  8
0
 10
1279.504527
 20
509.171121
 42
0.048985
  0
VERTEX
  8
0
 10
1279.978038
 20
513.795455
 42
0.019300
  0
VERTEX
  8
0
 10
1279.880231
 20
516.633590
 42
0.057839
  0
VERTEX
  8
0
 10
1279.516979
 20
518.536815
 42
0.073395
  0
VERTEX
  8
0
 10
1278.787307
 20
520.044765
 42
0.047085
  0
VERTEX
  8
0
 10
1277.545455
 20
521.545455
 42
0.046014
  0
VERTEX
  8
0
 10
1276.415182
 20
522.484854
 42
0.037190
  0
VERTEX
  8
0
 10
1275.050852
 20
523.278977
 42
0.038507
  0
VERTEX
  8
0
 10
1273.669695
 20
523.823919
 42
0.074846
  0
VERTEX
  8
0
 10
1272.500000
 20
524.000000
 42
0.074846
  0
VERTEX
  8
0
 10
1271.330305
 20
523.823919
 42
0.038507
  0
VERTEX
  8
0
 10
1269.949148
 20
523.278977
 42
0.037190
  0
VERTEX
  8
0
 10
1268.584818
 20
522.484854
 42
0.046014
  0
SEQEND
  0
POLYLINE
  8
0
 66
1
 70
1
  0
VERTEX
  8
0
 10
1313.500000
 20
522.109957
 42
0.060359
  0
VERTEX
  8
0
 10
1308.817501
 20
519.219907
 42
0.084357
  0
VERTEX
  8
0
 10
1305.547247
 20
515.557823
 42
0.083239
  0
VERTEX
  8
0
 10
1303.642007
 20
510.981814
 42
0.057170
  0
VERTEX
  8
0
 10
1303.000000
 20
505.385240
 42
0.079232
  0
VERTEX
  8
0
 10
1303.968243
 20
499.313432
 42
0.122530
  0
VERTEX
  8
0
 10
1306.776172
 20
494.835838
 42
0.088922
  0
VERTEX
  8
0
 10
1312.097995
 20
491.276736
 42
0.027722
  0
VERTEX
  8
0
 10
1321.137575
 20
487.908715
 42
-0.012104
  0
VERTEX
  8
0
 10
1328.694382
 20
485.358854
 42
-0.061622
  0
VERTEX
  8
0
 10
1332.638608
 20
483.341790
 42
-0.135967
  0
VERTEX
  8
0
 10
1334.414142
 20
481.253837
 42
-0.171744
  0
VERTEX
  8
0
 10
1334.651203
 20
478.746418
 42
-0.071196
  0
VERTEX
  8
0
 10
1334.141439
 20
477.499394
 42
-0.077974
  0
VERTEX
  8
0
 10
1333.314184
 20
476.488533
 42
-0.066590
  0
VERTEX
  8
0
 10
1332.102366
 20
475.665981
 42
-0.036161
  0
VERTEX
  8
0
 10
1330.435270
 20
474.978637
 42
-0.068127
  0
VERTEX
  8
0
 10
1326.824233
 20
474.311349
 42
-0.059049
  0
VERTEX
  8
0
 10
1322.979924
 20
474.585820
 42
-0.046931
  0
VERTEX
  8
0
 10
1318.571109
 20
475.868075
 42
-0.022663
  0
VERTEX
  8
0
 10
1313.203039
 20
478.279115
 42
0.007826
  0
VERTEX
  8
0
 10
1309.318575
 20
480.164193
 42
0.063296
  0
VERTEX
  8
0
 10
1307.435652
 20
480.766789
 42
0.118256
  0
VERTEX
  8
0
 10
1305.966734
 20
480.690177
 42
0.055538
  0
VERTEX
  8
0
 10
1304.203039
 20
479.947635
 42
0.118888
  0
VERTEX
  8
0
 10
1301.996319
 20
477.907804
 42
0.132154
  0
VERTEX
  8
0
 10
1301.071197
 20
475.164264
 42
0.124220
  0
VERTEX
  8
0
 10
1301.626269
 20
472.193802
 42
0.098184
  0
VERTEX
  8
0
 10
1303.552278
 20
469.539131
 42
0.099394
  0
VERTEX
  8
0
 10
1310.586443
 20
465.233483
 42
0.055987
  0
VERTEX
  8
0
 10
1320.347073
 20
462.852355
 42
0.055794
  0
VERTEX
  8
0
 10
1330.449985
 20
462.691209
 42
0.095142
  0
VERTEX
  8
0
 10
1338.523914
 20
465.058740
 42
0.059817
  0
VERTEX
  8
0
 10
1342.729762
 20
467.901921
 42
0.080544
  0
VERTEX
  8
0
 10
1345.672074
 20
471.422768
 42
0.078828
  0
VERTEX
  8
0
 10
1347.392392
 20
475.754344
 42
0.054657
  0
VERTEX
  8
0
 10
1347.979812
 20
481.000000
 42
0.077714
  0
VERTEX
  8
0
 10
1346.973535
 20
487.534030
 42
0.126352
  0
VERTEX
  8
0
 10
1344.011352
 20
492.266208
 42
0.090603
  0
VERTEX
  8
0
 10
1338.332033
 20
495.982391
 42
0.026693
  0
VERTEX
  8
0
 10
1328.500000
 20
499.519437
 42
-0.013074
  0
VERTEX
  8
0
 10
1322.373828
 20
501.536705
 42
-0.048795
  0
VERTEX
  8
0
 10
1318.710775
 20
503.269094
 42
-0.088398
  0
VERTEX
  8
0
 10
1316.700179
 20
505.016980
 42
-0.171359
  0
VERTEX
  8
0
 10
1316.000000
 20
507.000000
 42
-0.237158
  0
VERTEX
  8
0
 10
1317.557235
 20
510.098462
 42
-0.125777
  0
VERTEX
  8
0
 10
1321.631504
 20
511.769078
 42
-0.085317
  0
VERTEX
  8
0
 10
1327.501821
 20
511.585105
 42
-0.058602
  0
VERTEX
  8
0
 10
1333.841079
 20
509.494038
 42
0.054425
  0
VERTEX
  8
0
 10
1339.036894
 20
507.732034
 42
0.150961
  0
VERTEX
  8
0
 10
1342.839705
 20
508.042471
 42
0.198446
  0
VERTEX
  8
0
 10
1345.165017
 20
510.310437
 42
0.101870
  0
VERTEX
  8
0
 10
1346.000000
 20
514.366164
 42
0.276353
  0
VERTEX
  8
0
 10
1343.059229
 20
519.280507
 42
0.064689
  0
VERTEX
  8
0
 10
1333.707307
 20
522.833801
 42
0.060006
  0
VERTEX
  8
0
 10
1322.509794
 20
524.116341
 42
0.107049
  0
SEQEND
  0
POLYLINE
  8
0
 66
1
 70
1
  0
VERTEX
  8
0
 10
1413.634859
 20
521.927420
 42
0.000000
  0
VERTEX
  8
0
 10
1411.000000
 20
519.854840
 42
0.000000
  0
VERTEX
  8
0
 10
1411.000000
 20
493.082407
 42
0.001343
  0
VERTEX
  8
0
 10
1411.044796
 20
476.406802
 42
0.015853
  0
VERTEX
  8
0
 10
1411.284988
 20
469.931245
 42
0.042445
  0
VERTEX
  8
0
 10
1411.823951
 20
466.450375
 42
0.150311
  0
VERTEX
  8
0
 10
1412.966864
 20
464.529988
 42
0.054287
  0
VERTEX
  8
0
 10
1413.907548
 20
463.848295
 42
0.036132
  0
VERTEX
  8
0
 10
1415.109804
 20
463.272871
 42
0.036272
  0
VERTEX
  8
0
 10
1416.373740
 20
462.879602
 42
0.057347
  0
VERTEX
  8
0
 10
1417.500000
 20
462.750000
 42
0.057347
  0
VERTEX
  8
0
 10
1418.626260
 20
462.879602
 42
0.036272
  0
VERTEX
  8
0
 10
1419.890196
 20
463.272871
 42
0.036132
  0
VERTEX
  8
0
 10
1421.092452
 20
463.848295
 42
0.054287
  0
VERTEX
  8
0
 10
1422.033136
 20
464.529988
 42
0.120916
  0
VERTEX
  8
0
 10
1423.124039
 20
466.143288
 42
0.061081
  0
VERTEX
  8
0
 10
1423.691628
 20
468.546871
 42
0.024704
  0
VERTEX
  8
0
 10
1423.946793
 20
472.760294
 42
0.002772
  0
VERTEX
  8
0
 10
1424.000000
 20
482.357391
 42
0.000000
  0
VERTEX
  8
0
 10
1424.000000
 20
498.404807
 42
0.000000
  0
VERTEX
  8
0
 10
1430.750000
 20
488.452403
 42
0.004731
  0
VERTEX
  8
0
 10
1434.987900
 20
482.329442
 42
0.046343
  0
VERTEX
  8
0
 10
1437.028773
 20
479.943029
 42
0.110373
  0
VERTEX
  8
0
 10
1438.772460
 20
478.872013
 42
0.082929
  0
VERTEX
  8
0
 10
1441.000000
 20
478.500000
 42
0.082929
  0
VERTEX
  8
0
 10
1443.227540
 20
478.872013
 42
0.110373
  0
VERTEX
  8
0
 10
1444.971227
 20
479.943029
 42
0.046343
  0
VERTEX
  8
0
 10
1447.012100
 20
482.329442
 42
0.004731
  0
VERTEX
  8
0
 10
1451.250000
 20
488.452403
 42
0.000000
  0
VERTEX
  8
0
 10
1458.000000
 20
498.404807
 42
0.000000
  0
VERTEX
  8
0
 10
1458.000000
 20
482.357391
 42
0.002772
  0
VERTEX
  8
0
 10
1458.053207
 20
472.760294
 42
0.024704
  0
VERTEX
  8
0
 10
1458.308372
 20
468.546871
 42
0.061081
  0
VERTEX
  8
0
 10
1458.875961
 20
466.143288
 42
0.120916
  0
VERTEX
  8
0
 10
1459.966864
 20
464.529988
 42
0.054287
  0
VERTEX
  8
0
 10
1460.907548
 20
463.848295
 42
0.036132
  0
VERTEX
  8
0
 10
1462.109804
 20
463.272871
 42
0.036272
  0
VERTEX
  8
0
 10
1463.373740
 20
462.879602
 42
0.057347
  0
VERTEX
  8
0
 10
1464.500000
 20
462.750000
 42
0.057347
  0
VERTEX
  8
0
 10
1465.626260
 20
462.879602
 42
0.036272
  0
VERTEX
  8
0
 10
1466.890196
 20
463.272871
 42
0.036132
  0
VERTEX
  8
0
 10
1468.092452
 20
463.848295
 42
0.054287
  0
VERTEX
  8
0
 10
1469.033136
 20
464.529988
 42
0.150462
  0
VERTEX
  8
0
 10
1470.176342
 20
466.452157
 42
0.042340
  0
VERTEX
  8
0
 10
1470.715107
 20
469.940556
 42
0.015814
  0
VERTEX
  8
0
 10
1470.955237
 20
476.431378
 42
0.001338
  0
VERTEX
  8
0
 10
1471.000000
 20
493.154988
 42
0.001341
  0
VERTEX
  8
0
 10
1470.954984
 20
509.939473
 42
0.015967
  0
VERTEX
  8
0
 10
1470.712749
 20
516.431624
 42
0.043329
  0
VERTEX
  8
0
 10
1470.161070
 20
519.943223
 42
0.136582
  0
VERTEX
  8
0
 10
1469.000000
 20
522.000000
 42
0.100497
  0
VERTEX
  8
0
 10
1466.968186
 20
523.345975
 42
0.081389
  0
VERTEX
  8
0
 10
1464.412537
 20
523.923740
 42
0.079504
  0
VERTEX
  8
0
 10
1461.749870
 20
523.659921
 42
0.088626
  0
VERTEX
  8
0
 10
1459.410864
 20
522.575227
 42
0.083559
  0
VERTEX
  8
0
 10
1458.261922
 20
521.443742
 42
0.005852
  0
VERTEX
  8
0
 10
1455.644954
 20
517.736025
 42
0.008162
  0
VERTEX
  8
0
 10
1452.632726
 20
513.203842
 42
0.006051
  0
VERTEX
  8
0
 10
1449.447206
 20
508.102093
 42
-0.004657
  0
VERTEX
  8
0
 10
1445.462625
 20
501.680819
 42
-0.022032
  0
VERTEX
  8
0
 10
1442.986275
 20
498.128243
 42
-0.037786
  0
VERTEX
  8
0
 10
1441.308456
 20
496.247142
 42
-0.422683
  0
VERTEX
  8
0
 10
1440.405144
 20
496.276866
 42
-0.040174
  0
VERTEX
  8
0
 10
1439.704111
 20
497.184283
 42
-0.001711
  0
VERTEX
  8
0
 10
1437.503258
 20
500.587463
 42
-0.002926
  0
VERTEX
  8
0
 10
1434.929417
 20
504.649532
 42
-0.002078
  0
VERTEX
  8
0
 10
1432.088690
 20
509.233645
 42
0.014370
  0
VERTEX
  8
0
 10
1425.760289
 20
518.906456
 42
0.090286
  0
VERTEX
  8
0
 10
1421.593196
 20
523.050456
 42
0.200100
  0
VERTEX
  8
0
 10
1417.840335
 20
523.840755
 42
0.120348
  0
SEQEND
  0
POLYLINE
  8
0
 66
1
 70
1
  0
VERTEX
  8
0
 10
1579.000000
 20
522.000000
 42
0.136582
  0
VERTEX
  8
0
 10
1577.838930
 20
519.943223
 42
0.043329
  0
VERTEX
  8
0
 10
1577.287251
 20
516.431624
 42
0.015967
  0
VERTEX
  8
0
 10
1577.045016
 20
509.939473
 42
0.001341
  0
VERTEX
  8
0
 10
1577.000000
 20
493.154988
 42
0.001338
  0
VERTEX
  8
0
 10
1577.044763
 20
476.431378
 42
0.015814
  0
VERTEX
  8
0
 10
1577.284893
 20
469.940556
 42
0.042340
  0
VERTEX
  8
0
 10
1577.823658
 20
466.452157
 42
0.150462
  0
VERTEX
  8
0
 10
1578.966864
 20
464.529988
 42
0.097840
  0
VERTEX
  8
0
 10
1581.143528
 20
463.223738
 42
0.096099
  0
VERTEX
  8
0
 10
1583.667627
 20
462.832352
 42
0.094869
  0
VERTEX
  8
0
 10
1586.181795
 20
463.412939
 42
0.092583
  0
VERTEX
  8
0
 10
1588.328233
 20
464.883789
 42
0.070749
  0
VERTEX
  8
0
 10
1589.408599
 20
466.322374
 42
0.061480
  0
VERTEX
  8
0
 10
1590.108519
 20
468.074408
 42
0.040152
  0
VERTEX
  8
0
 10
1590.550146
 20
470.543377
 42
0.011571
  0
VERTEX
  8
0
 10
1590.835520
 20
474.413916
 42
-0.010767
  0
VERTEX
  8
0
 10
1591.154451
 20
478.836604
 42
-0.059840
  0
VERTEX
  8
0
 10
1591.657079
 20
481.159895
 42
-0.084250
  0
VERTEX
  8
0
 10
1592.622659
 20
482.924435
 42
-0.033065
  0
VERTEX
  8
0
 10
1594.488381
 20
484.988739
 42
0.000000
  0
VERTEX
  8
0
 10
1597.767744
 20
488.167222
 42
0.000000
  0
VERTEX
  8
0
 10
1607.048125
 20
475.990626
 42
0.007205
  0
VERTEX
  8
0
 10
1610.754655
 20
471.270036
 42
0.010055
  0
VERTEX
  8
0
 10
1614.213559
 20
467.164820
 42
0.006815
  0
VERTEX
  8
0
 10
1617.204509
 20
463.848790
 42
0.117778
  0
VERTEX
  8
0
 10
1618.409071
 20
463.044378
 42
0.142427
  0
VERTEX
  8
0
 10
1621.830420
 20
462.799808
 42
0.133063
  0
VERTEX
  8
0
 10
1624.953571
 20
464.410542
 42
0.129000
  0
VERTEX
  8
0
 10
1626.901792
 20
467.426873
 42
0.130194
  0
VERTEX
  8
0
 10
1627.109141
 20
471.000000
 42
0.105161
  0
VERTEX
  8
0
 10
1626.683836
 20
471.977154
 42
0.003339
  0
VERTEX
  8
0
 10
1624.131554
 20
475.501698
 42
0.006339
  0
VERTEX
  8
0
 10
1621.026359
 20
479.619590
 42
0.004340
  0
VERTEX
  8
0
 10
1617.401782
 20
484.218546
 42
-0.002904
  0
VERTEX
  8
0
 10
1613.795979
 20
488.766747
 42
-0.004549
  0
VERTEX
  8
0
 10
1610.753380
 20
492.724321
 42
-0.001378
  0
VERTEX
  8
0
 10
1608.161041
 20
496.180258
 42
-0.152226
  0
VERTEX
  8
0
 10
1607.971426
 20
496.718546
 42
-0.200804
  0
VERTEX
  8
0
 10
1608.162162
 20
497.225606
 42
-0.002539
  0
VERTEX
  8
0
 10
1610.583761
 20
499.767323
 42
-0.006949
  0
VERTEX
  8
0
 10
1613.471635
 20
502.685508
 42
-0.004440
  0
VERTEX
  8
0
 10
1616.904607
 20
506.000000
 42
0.008365
  0
VERTEX
  8
0
 10
1620.379710
 20
509.408273
 42
0.011228
  0
VERTEX
  8
0
 10
1623.405495
 20
512.617906
 42
0.008509
  0
VERTEX
  8
0
 10
1625.809405
 20
515.378463
 42
0.107199
  0
VERTEX
  8
0
 10
1626.450698
 20
516.592872
 42
0.158573
  0
VERTEX
  8
0
 10
1626.352863
 20
518.906692
 42
0.084985
  0
VERTEX
  8
0
 10
1624.901519
 20
521.404609
 42
0.082907
  0
VERTEX
  8
0
 10
1622.655834
 20
523.332690
 42
0.136848
  0
VERTEX
  8
0
 10
1620.263354
 20
524.000000
 42
0.145867
  0
VERTEX
  8
0
 10
1618.415249
 20
523.449125
 42
0.027021
  0
VERTEX
  8
0
 10
1615.523267
 20
521.325406
 42
0.018443
  0
VERTEX
  8
0
 10
1611.411477
 20
517.687550
 42
0.004724
  0
VERTEX
  8
0
 10
1605.038666
 20
511.500000
 42
-0.002265
  0
VERTEX
  8
0
 10
1600.151490
 20
506.707979
 42
-0.003641
  0
VERTEX
  8
0
 10
1595.936778
 20
502.671875
 42
-0.000756
  0
VERTEX
  8
0
 10
1592.208777
 20
499.164189
 42
-0.190621
  0
VERTEX
  8
0
 10
1591.793757
 20
499.000000
 42
-0.384491
  0
VERTEX
  8
0
 10
1591.539396
 20
499.229531
 42
-0.003203
  0
VERTEX
  8
0
 10
1591.261563
 20
502.110840
 42
-0.008975
  0
VERTEX
  8
0
 10
1591.015770
 20
505.529512
 42
-0.005408
  0
VERTEX
  8
0
 10
1590.841025
 20
509.590093
 42
0.005081
  0
VERTEX
  8
0
 10
1590.572882
 20
515.917575
 42
0.040111
  0
VERTEX
  8
0
 10
1590.184759
 20
518.825393
 42
0.087909
  0
VERTEX
  8
0
 10
1589.453856
 20
520.612464
 42
0.081928
  0
VERTEX
  8
0
 10
1588.139216
 20
522.090093
 42
0.075146
  0
VERTEX
  8
0
 10
1585.803338
 20
523.459361
 42
0.097823
  0
VERTEX
  8
0
 10
1583.371922
 20
523.914798
 42
0.102922
  0
VERTEX
  8
0
 10
1581.043677
 20
523.406419
 42
0.091579
  0
SEQEND
  0
POLYLINE
  8
0
 66
1
 70
1
  0
VERTEX
  8
0
 10
1656.000000
 20
523.290565
 42
0.037571
  0
VERTEX
  8
0
 10
1655.301608
 20
522.972415
 42
0.016473
  0
VERTEX
  8
0
 10
1654.426563
 20
522.453218
 42
0.016194
  0
VERTEX
  8
0
 10
1653.529848
 20
521.838645
 42
0.020859
  0
VERTEX
  8
0
 10
1652.750000
 20
521.214525
 42
0.168808
  0
VERTEX
  8
0
 10
1651.750008
 20
519.466759
 42
0.030640
  0
VERTEX
  8
0
 10
1651.281073
 20
515.703521
 42
0.014139
  0
VERTEX
  8
0
 10
1651.048005
 20
508.937635
 42
0.001539
  0
VERTEX
  8
0
 10
1651.000000
 20
493.345012
 42
0.001362
  0
VERTEX
  8
0
 10
1651.044990
 20
476.823617
 42
0.016422
  0
VERTEX
  8
0
 10
1651.288358
 20
470.470438
 42
0.045201
  0
VERTEX
  8
0
 10
1651.848071
 20
467.034260
 42
0.134194
  0
VERTEX
  8
0
 10
1653.021070
 20
464.978930
 42
0.117967
  0
VERTEX
  8
0
 10
1654.879510
 20
463.838105
 42
0.058823
  0
VERTEX
  8
0
 10
1657.602384
 20
463.291276
 42
0.021656
  0
VERTEX
  8
0
 10
1662.484998
 20
463.108698
 42
0.001971
  0
VERTEX
  8
0
 10
1674.664218
 20
463.228930
 42
0.000000
  0
VERTEX
  8
0
 10
1694.286296
 20
463.500000
 42
0.000000
  0
VERTEX
  8
0
 10
1696.245164
 20
466.125122
 42
0.026567
  0
VERTEX
  8
0
 10
1697.250686
 20
467.633595
 42
0.098902
  0
VERTEX
  8
0
 10
1697.626956
 20
468.705265
 42
0.114777
  0
VERTEX
  8
0
 10
1697.534633
 20
469.751015
 42
0.042139
  0
VERTEX
  8
0
 10
1696.952312
 20
471.125122
 42
0.020830
  0
VERTEX
  8
0
 10
1696.392272
 20
472.088185
 42
0.019802
  0
VERTEX
  8
0
 10
1695.745073
 20
473.018194
 42
0.020203
  0
VERTEX
  8
0
 10
1695.107797
 20
473.793531
 42
0.063508
  0
VERTEX
  8
0
 10
1694.600296
 20
474.234687
 42
0.132805
  0
VERTEX
  8
0
 10
1693.724559
 20
474.529439
 42
0.003330
  0
VERTEX
  8
0
 10
1689.490399
 20
474.758058
 42
0.006924
  0
VERTEX
  8
0
 10
1684.481980
 20
474.925575
 42
0.004637
  0
VERTEX
  8
0
 10
1678.750000
 20
474.984687
 42
0.000000
  0
VERTEX
  8
0
 10
1664.000000
 20
475.000000
 42
0.000000
  0
VERTEX
  8
0
 10
1664.000000
 20
480.920531
 42
0.000000
  0
VERTEX
  8
0
 10
1664.000000
 20
486.841062
 42
0.000000
  0
VERTEX
  8
0
 10
1677.082731
 20
487.170531
 42
0.003882
  0
VERTEX
  8
0
 10
1684.623354
 20
487.419018
 42
0.028665
  0
VERTEX
  8
0
 10
1688.203470
 20
487.771062
 42
0.065773
  0
VERTEX
  8
0
 10
1690.267560
 20
488.379577
 42
0.131269
  0
VERTEX
  8
0
 10
1691.582731
 20
489.441130
 42
0.043532
  0
VERTEX
  8
0
 10
1692.125518
 20
490.339185
 42
0.030184
  0
VERTEX
  8
0
 10
1692.583677
 20
491.434139
 42
0.030544
  0
VERTEX
  8
0
 10
1692.897866
 20
492.548241
 42
0.053502
  0
VERTEX
  8
0
 10
1693.000000
 20
493.500000
 42
0.053502
  0
VERTEX
  8
0
 10
1692.897866
 20
494.451759
 42
0.030544
  0
VERTEX
  8
0
 10
1692.583677
 20
495.565861
 42
0.030184
  0
VERTEX
  8
0
 10
1692.125518
 20
496.660815
 42
0.043532
  0
VERTEX
  8
0
 10
1691.582731
 20
497.558870
 42
0.131269
  0
VERTEX
  8
0
 10
1690.267560
 20
498.620423
 42
0.065773
  0
VERTEX
  8
0
 10
1688.203470
 20
499.228938
 42
0.028665
  0
VERTEX
  8
0
 10
1684.623354
 20
499.580982
 42
0.003882
  0
VERTEX
  8
0
 10
1677.082731
 20
499.829469
 42
0.000000
  0
VERTEX
  8
0
 10
1664.000000
 20
500.158938
 42
0.000000
  0
VERTEX
  8
0
 10
1664.000000
 20
505.507424
 42
0.000000
  0
VERTEX
  8
0
 10
1664.000000
 20
510.855910
 42
0.000000
  0
VERTEX
  8
0
 10
1679.082724
 20
511.177955
 42
0.003102
  0
VERTEX
  8
0
 10
1687.933205
 20
511.421867
 42
0.025645
  0
VERTEX
  8
0
 10
1691.941321
 20
511.763515
 42
0.061856
  0
VERTEX
  8
0
 10
1694.199999
 20
512.364047
 42
0.140084
  0
VERTEX
  8
0
 10
1695.582724
 20
513.441130
 42
0.083263
  0
VERTEX
  8
0
 10
1696.702469
 20
515.675746
 42
0.110669
  0
VERTEX
  8
0
 10
1696.878879
 20
517.934659
 42
0.109881
  0
VERTEX
  8
0
 10
1696.073744
 20
520.064715
 42
0.081180
  0
VERTEX
  8
0
 10
1694.365141
 20
521.927420
 42
0.084896
  0
VERTEX
  8
0
 10
1692.236867
 20
523.082187
 42
0.056847
  0
VERTEX
  8
0
 10
1689.524219
 20
523.672216
 42
0.023673
  0
VERTEX
  8
0
 10
1684.985108
 20
523.914225
 42
0.002636
  0
VERTEX
  8
0
 10
1674.615141
 20
523.921053
 42
0.002963
  0
VERTEX
  8
0
 10
1667.948280
 20
523.850789
 42
0.004348
  0
VERTEX
  8
0
 10
1662.086948
 20
523.703281
 42
0.002128
  0
VERTEX
  8
0
 10
1657.116072
 20
523.513737
 42
0.077651
  0
SEQEND
  0
POLYLINE
  8
0
 66
1
 70
1
  0
VERTEX
  8
0
 10
1725.315372
 20
523.055970
 42
0.164321
  0
VERTEX
  8
0
 10
1722.922180
 20
520.900066
 42
0.092806
  0
VERTEX
  8
0
 10
1721.655442
 20
517.161633
 42
0.032297
  0
VERTEX
  8
0
 10
1721.107801
 20
510.067914
 42
0.003119
  0
VERTEX
  8
0
 10
1721.000000
 20
492.788248
 42
0.003539
  0
VERTEX
  8
0
 10
1721.135895
 20
473.590331
 42
0.054215
  0
VERTEX
  8
0
 10
1721.944677
 20
467.020040
 42
0.200206
  0
VERTEX
  8
0
 10
1724.044932
 20
464.115099
 42
0.138275
  0
VERTEX
  8
0
 10
1728.000000
 20
463.000000
 42
0.090025
  0
VERTEX
  8
0
 10
1731.431002
 20
463.622799
 42
0.169946
  0
VERTEX
  8
0
 10
1733.564250
 20
465.404370
 42
0.108885
  0
VERTEX
  8
0
 10
1734.689480
 20
468.784019
 42
0.026127
  0
VERTEX
  8
0
 10
1735.000000
 20
474.722506
 42
0.000000
  0
VERTEX
  8
0
 10
1735.000000
 20
482.000000
 42
0.000000
  0
VERTEX
  8
0
 10
1740.250000
 20
481.958412
 42
0.000000
  0
VERTEX
  8
0
 10
1745.500000
 20
481.916823
 42
0.000000
  0
VERTEX
  8
0
 10
1752.497172
 20
472.970072
 42
0.015623
  0
VERTEX
  8
0
 10
1757.515626
 20
466.950740
 42
0.064977
  0
VERTEX
  8
0
 10
1761.077622
 20
463.859166
 42
0.122065
  0
VERTEX
  8
0
 10
1764.072806
 20
462.792531
 42
0.143084
  0
VERTEX
  8
0
 10
1767.026995
 20
463.345542
 42
0.110015
  0
VERTEX
  8
0
 10
1770.004260
 20
465.794997
 42
0.200195
  0
VERTEX
  8
0
 10
1770.824817
 20
468.782650
 42
0.113416
  0
VERTEX
  8
0
 10
1769.352353
 20
472.779312
 42
0.025841
  0
VERTEX
  8
0
 10
1765.071643
 20
478.643888
 42
0.000000
  0
VERTEX
  8
0
 10
1760.080918
 20
484.787776
 42
0.000000
  0
VERTEX
  8
0
 10
1763.884171
 20
487.304650
 42
0.150023
  0
VERTEX
  8
0
 10
1770.167353
 20
494.942888
 42
0.128467
  0
VERTEX
  8
0
 10
1771.574256
 20
505.300279
 42
0.125646
  0
VERTEX
  8
0
 10
1767.729725
 20
515.197511
 42
0.140476
  0
VERTEX
  8
0
 10
1759.737270
 20
521.544980
 42
0.077041
  0
VERTEX
  8
0
 10
1754.204451
 20
522.888863
 42
0.010158
  0
VERTEX
  8
0
 10
1742.119885
 20
523.665563
 42
0.008777
  0
VERTEX
  8
0
 10
1729.920799
 20
523.986642
 42
0.104455
  0
SEQEND
  0
POLYLINE
  8
0
 66
1
 70
1
  0
VERTEX
  8
0
 10
1755.545455
 20
508.545455
 42
-0.090385
  0
VERTEX
  8
0
 10
1757.305788
 20
506.000426
 42
-0.104419
  0
VERTEX
  8
0
 10
1757.939015
 20
503.124876
 42
-0.100923
  0
VERTEX
  8
0
 10
1757.361525
 20
500.162035
 42
-0.079342
  0
VERTEX
  8
0
 10
1755.642305
 20
497.370543
 42
-0.056029
  0
VERTEX
  8
0
 10
1753.975009
 20
495.821990
 42
-0.091989
  0
VERTEX
  8
0
 10
1752.248490
 20
494.981400
 42
-0.048821
  0
VERTEX
  8
0
 10
1749.647856
 20
494.529464
 42
-0.006681
  0
VERTEX
  8
0
 10
1744.142305
 20
494.192461
 42
0.000000
  0
VERTEX
  8
0
 10
1735.000000
 20
493.755361
 42
0.000000
  0
VERTEX
  8
0
 10
1735.000000
 20
502.377681
 42
0.000000
  0
VERTEX
  8
0
 10
1735.000000
 20
511.000000
 42
0.000000
  0
VERTEX
  8
0
 10
1744.045455
 20
511.000000
 42
-0.006717
  0
VERTEX
  8
0
 10
1749.424595
 20
510.927730
 42
-0.045886
  0
VERTEX
  8
0
 10
1752.055291
 20
510.614322
 42
-0.085912
  0
VERTEX
  8
0
 10
1753.831063
 20
509.901580
 42
-0.058142
  0
SEQEND
  0
POLYLINE
  8
0
 66
1
 70
1
  0
VERTEX
  8
0
 10
1843.500000
 20
522.119269
 42
0.035053
  0
VERTEX
  8
0
 10
1840.338053
 20
520.389604
 42
0.059376
  0
VERTEX
  8
0
 10
1838.011867
 20
518.472666
 42
0.058619
  0
VERTEX
  8
0
 10
1836.181910
 20
516.044545
 42
0.033250
  0
VERTEX
  8
0
 10
1834.538138
 20
512.745520
 42
0.075271
  0
VERTEX
  8
0
 10
1833.090131
 20
506.966803
 42
0.086577
  0
VERTEX
  8
0
 10
1833.529658
 20
501.304046
 42
0.091396
  0
VERTEX
  8
0
 10
1835.809899
 20
496.364335
 42
0.095859
  0
VERTEX
  8
0
 10
1839.671278
 20
492.658048
 42
0.036827
  0
VERTEX
  8
0
 10
1841.739805
 20
491.527598
 42
0.011260
  0
VERTEX
  8
0
 10
1845.019063
 20
490.125613
 42
0.011204
  0
VERTEX
  8
0
 10
1848.773514
 20
488.716339
 42
0.012029
  0
VERTEX
  8
0
 10
1852.500000
 20
487.511855
 42
-0.016265
  0
VERTEX
  8
0
 10
1859.086840
 20
485.321045
 42
-0.068392
  0
VERTEX
  8
0
 10
1862.755989
 20
483.363057
 42
-0.136162
  0
VERTEX
  8
0
 10
1864.445360
 20
481.245414
 42
-0.163591
  0
VERTEX
  8
0
 10
1864.643962
 20
478.717569
 42
-0.203608
  0
VERTEX
  8
0
 10
1862.252100
 20
475.555697
 42
-0.124865
  0
VERTEX
  8
0
 10
1857.682129
 20
474.276158
 42
-0.080406
  0
VERTEX
  8
0
 10
1851.221377
 20
475.159701
 42
-0.040460
  0
VERTEX
  8
0
 10
1843.549594
 20
478.199512
 42
0.009682
  0
VERTEX
  8
0
 10
1839.920556
 20
479.902530
 42
0.049460
  0
VERTEX
  8
0
 10
1837.808711
 20
480.603699
 42
0.087095
  0
VERTEX
  8
0
 10
1836.205328
 20
480.680681
 42
0.075581
  0
VERTEX
  8
0
 10
1834.584627
 20
480.220513
 42
0.115597
  0
VERTEX
  8
0
 10
1832.761880
 20
478.812578
 42
0.085618
  0
VERTEX
  8
0
 10
1831.509792
 20
476.585157
 42
0.088395
  0
VERTEX
  8
0
 10
1831.102318
 20
474.137353
 42
0.137224
  0
VERTEX
  8
0
 10
1831.698670
 20
472.095223
 42
0.120970
  0
VERTEX
  8
0
 10
1835.789715
 20
468.103124
 42
0.046646
  0
VERTEX
  8
0
 10
1843.018603
 20
464.707295
 42
0.045573
  0
VERTEX
  8
0
 10
1851.300463
 20
462.549708
 42
0.066753
  0
VERTEX
  8
0
 10
1858.817740
 20
462.320638
 42
0.045735
  0
VERTEX
  8
0
 10
1863.625025
 20
463.266385
 42
0.038796
  0
VERTEX
  8
0
 10
1868.464868
 20
465.105885
 42
0.040552
  0
VERTEX
  8
0
 10
1872.614464
 20
467.491849
 42
0.085371
  0
VERTEX
  8
0
 10
1875.266030
 20
470.079566
 42
0.064618
  0
VERTEX
  8
0
 10
1877.062936
 20
473.382912
 42
0.050237
  0
VERTEX
  8
0
 10
1878.150062
 20
477.330147
 42
0.049125
  0
VERTEX
  8
0
 10
1878.444211
 20
481.514026
 42
0.054728
  0
VERTEX
  8
0
 10
1877.890529
 20
485.520467
 42
0.079546
  0
VERTEX
  8
0
 10
1876.039296
 20
489.833563
 42
0.085113
  0
VERTEX
  8
0
 10
1872.966985
 20
493.239065
 42
0.065211
  0
VERTEX
  8
0
 10
1868.236551
 20
496.053678
 42
0.027189
  0
VERTEX
  8
0
 10
1861.253099
 20
498.619747
 42
-0.006918
  0
VERTEX
  8
0
 10
1853.110024
 20
501.242636
 42
-0.051441
  0
VERTEX
  8
0
 10
1849.413567
 20
502.930012
 42
-0.124604
  0
VERTEX
  8
0
 10
1847.645624
 20
504.675313
 42
-0.136822
  0
VERTEX
  8
0
 10
1847.000000
 20
506.990496
 42
-0.215515
  0
VERTEX
  8
0
 10
1848.456854
 20
510.213437
 42
-0.146478
  0
VERTEX
  8
0
 10
1852.170609
 20
511.920394
 42
-0.092218
  0
VERTEX
  8
0
 10
1857.798674
 20
511.672782
 42
-0.050405
  0
VERTEX
  8
0
 10
1864.359158
 20
509.435849
 42
0.010932
  0
VERTEX
  8
0
 10
1867.632659
 20
508.022914
 42
0.059618
  0
VERTEX
  8
0
 10
1869.490836
 20
507.515616
 42
0.095470
  0
VERTEX
  8
0
 10
1870.993560
 20
507.580189
 42
0.052979
  0
VERTEX
  8
0
 10
1872.730001
 20
508.192804
 42
0.133214
  0
VERTEX
  8
0
 10
1874.773603
 20
509.948961
 42
0.106705
  0
VERTEX
  8
0
 10
1875.863153
 20
512.649920
 42
0.104573
  0
VERTEX
  8
0
 10
1875.752029
 20
515.606631
 42
0.123017
  0
VERTEX
  8
0
 10
1874.434313
 20
518.072583
 42
0.130357
  0
VERTEX
  8
0
 10
1869.097583
 20
521.538461
 42
0.046697
  0
VERTEX
  8
0
 10
1860.179311
 20
523.564646
 42
0.046661
  0
VERTEX
  8
0
 10
1850.721891
 20
523.913055
 42
0.093786
  0
SEQEND
  0
POLYLINE
  8
0
 66
1
 70
1
  0
VERTEX
  8
0
 10
1908.000000
 20
523.356445
 42
0.119562
  0
VERTEX
  8
0
 10
1905.067996
 20
521.225533
 42
0.136103
  0
VERTEX
  8
0
 10
1903.612579
 20
518.083527
 42
0.038621
  0
VERTEX
  8
0
 10
1903.083739
 20
511.952292
 42
0.002209
  0
VERTEX
  8
0
 10
1903.000000
 20
493.000000
 42
0.001349
  0
VERTEX
  8
0
 10
1903.044834
 20
476.378897
 42
0.015897
  0
VERTEX
  8
0
 10
1903.285096
 20
469.920673
 42
0.042563
  0
VERTEX
  8
0
 10
1903.824285
 20
466.448347
 42
0.150140
  0
VERTEX
  8
0
 10
1904.966864
 20
464.529988
 42
0.054287
  0
VERTEX
  8
0
 10
1905.907548
 20
463.848295
 42
0.036132
  0
VERTEX
  8
0
 10
1907.109804
 20
463.272871
 42
0.036272
  0
VERTEX
  8
0
 10
1908.373740
 20
462.879602
 42
0.057347
  0
VERTEX
  8
0
 10
1909.500000
 20
462.750000
 42
0.101387
  0
VERTEX
  8
0
 10
1912.554758
 20
463.375860
 42
0.157345
  0
VERTEX
  8
0
 10
1914.567093
 20
465.127680
 42
0.104904
  0
VERTEX
  8
0
 10
1915.676162
 20
468.330865
 42
0.031079
  0
VERTEX
  8
0
 10
1916.000000
 20
473.535708
 42
0.000000
  0
VERTEX
  8
0
 10
1916.000000
 20
480.761441
 42
0.000000
  0
VERTEX
  8
0
 10
1925.250000
 20
481.173083
 42
0.046777
  0
VERTEX
  8
0
 10
1935.008018
 20
482.527880
 42
0.092184
  0
VERTEX
  8
0
 10
1942.146065
 20
485.675302
 42
0.107318
  0
VERTEX
  8
0
 10
1946.989564
 20
490.793394
 42
0.080928
  0
VERTEX
  8
0
 10
1949.888185
 20
497.997863
 42
0.085356
  0
VERTEX
  8
0
 10
1950.247159
 20
505.069980
 42
0.088152
  0
VERTEX
  8
0
 10
1948.208029
 20
511.770181
 42
0.087687
  0
VERTEX
  8
0
 10
1943.972860
 20
517.385334
 42
0.083344
  0
VERTEX
  8
0
 10
1938.000000
 20
521.327288
 42
0.039877
  0
VERTEX
  8
0
 10
1935.175587
 20
522.317953
 42
0.029492
  0
VERTEX
  8
0
 10
1931.928542
 20
522.971651
 42
0.020885
  0
VERTEX
  8
0
 10
1927.669313
 20
523.390117
 42
0.007244
  0
VERTEX
  8
0
 10
1921.500000
 20
523.647427
 42
0.005087
  0
VERTEX
  8
0
 10
1916.793863
 20
523.727549
 42
0.007100
  0
VERTEX
  8
0
 10
1912.584375
 20
523.696607
 42
0.004545
  0
VERTEX
  8
0
 10
1909.062916
 20
523.588675
 42
0.087913
  0
SEQEND
  0
POLYLINE
  8
0
 66
1
 70
1
  0
VERTEX
  8
0
 10
1933.288363
 20
508.987814
 42
-0.134379
  0
VERTEX
  8
0
 10
1935.989876
 20
505.337521
 42
-0.133372
  0
VERTEX
  8
0
 10
1936.466138
 20
500.809146
 42
-0.134052
  0
VERTEX
  8
0
 10
1934.587404
 20
496.678983
 42
-0.136322
  0
VERTEX
  8
0
 10
1930.881161
 20
494.108417
 42
-0.039018
  0
VERTEX
  8
0
 10
1929.259916
 20
493.681587
 42
-0.014326
  0
VERTEX
  8
0
 10
1926.916898
 20
493.325598
 42
-0.014100
  0
VERTEX
  8
0
 10
1924.323969
 20
493.081316
 42
-0.016435
  0
VERTEX
  8
0
 10
1921.850777
 20
493.000000
 42
0.000000
  0
VERTEX
  8
0
 10
1916.000000
 20
493.000000
 42
0.000000
  0
VERTEX
  8
0
 10
1916.000000
 20
502.000000
 42
0.000000
  0
VERTEX
  8
0
 10
1916.000000
 20
511.000000
 42
0.000000
  0
VERTEX
  8
0
 10
1923.365141
 20
511.000000
 42
-0.011721
  0
VERTEX
  8
0
 10
1927.227701
 20
510.909439
 42
-0.038314
  0
VERTEX
  8
0
 10
1929.762433
 20
510.594868
 42
-0.056262
  0
VERTEX
  8
0
 10
1931.641321
 20
509.987893
 42
-0.060485
  0
SEQEND
  0
POLYLINE
  8
0
 66
1
 70
1
  0
VERTEX
  8
0
 10
2125.315372
 20
522.993020
 42
0.169178
  0
VERTEX
  8
0
 10
2122.927934
 20
520.906690
 42
0.093881
  0
VERTEX
  8
0
 10
2121.659407
 20
517.205721
 42
0.032584
  0
VERTEX
  8
0
 10
2121.108783
 20
510.146996
 42
0.003176
  0
VERTEX
  8
0
 10
2121.000000
 20
493.020287
 42
0.000000
  0
VERTEX
  8
0
 10
2121.000000
 20
467.909091
 42
0.000000
  0
VERTEX
  8
0
 10
2123.454545
 20
465.454545
 42
0.088804
  0
VERTEX
  8
0
 10
2125.518794
 20
464.017157
 42
0.079527
  0
VERTEX
  8
0
 10
2128.034467
 20
463.314439
 42
0.026579
  0
VERTEX
  8
0
 10
2132.462197
 20
463.046112
 42
0.001846
  0
VERTEX
  8
0
 10
2144.954545
 20
463.000000
 42
0.002175
  0
VERTEX
  8
0
 10
2156.553496
 20
463.050467
 42
0.021515
  0
VERTEX
  8
0
 10
2161.421824
 20
463.302506
 42
0.055310
  0
VERTEX
  8
0
 10
2164.165283
 20
463.873659
 42
0.117951
  0
VERTEX
  8
0
 10
2166.000000
 20
465.000000
 42
0.069596
  0
VERTEX
  8
0
 10
2167.371997
 20
466.818208
 42
0.113111
  0
VERTEX
  8
0
 10
2167.908319
 20
468.667996
 42
0.107977
  0
VERTEX
  8
0
 10
2167.595615
 20
470.628305
 42
0.059497
  0
VERTEX
  8
0
 10
2166.443296
 20
472.777494
 42
0.118741
  0
VERTEX
  8
0
 10
2165.012450
 20
474.041097
 42
0.088515
  0
VERTEX
  8
0
 10
2162.999971
 20
474.686774
 42
0.030861
  0
VERTEX
  8
0
 10
2159.350723
 20
474.950670
 42
0.002622
  0
VERTEX
  8
0
 10
2149.943296
 20
475.000000
 42
0.000000
  0
VERTEX
  8
0
 10
2135.000000
 20
475.000000
 42
0.000000
  0
VERTEX
  8
0
 10
2135.000000
 20
480.918443
 42
0.000000
  0
VERTEX
  8
0
 10
2135.000000
 20
486.836887
 42
0.000000
  0
VERTEX
  8
0
 10
2147.467106
 20
487.168443
 42
0.010812
  0
VERTEX
  8
0
 10
2156.333506
 20
487.596237
 42
0.078077
  0
VERTEX
  8
0
 10
2160.486708
 20
488.549743
 42
0.181535
  0
VERTEX
  8
0
 10
2162.505031
 20
490.395132
 42
0.118289
  0
VERTEX
  8
0
 10
2163.250000
 20
493.500000
 42
0.118289
  0
VERTEX
  8
0
 10
2162.505031
 20
496.604868
 42
0.181535
  0
VERTEX
  8
0
 10
2160.486708
 20
498.450257
 42
0.078077
  0
VERTEX
  8
0
 10
2156.333506
 20
499.403763
 42
0.010812
  0
VERTEX
  8
0
 10
2147.467106
 20
499.831557
 42
0.000000
  0
VERTEX
  8
0
 10
2135.000000
 20
500.163113
 42
0.000000
  0
VERTEX
  8
0
 10
2135.000000
 20
505.581557
 42
0.000000
  0
VERTEX
  8
0
 10
2135.000000
 20
511.000000
 42
0.000000
  0
VERTEX
  8
0
 10
2148.777494
 20
511.000000
 42
0.009834
  0
VERTEX
  8
0
 10
2159.376635
 20
511.208484
 42
0.080785
  0
VERTEX
  8
0
 10
2164.095345
 20
512.167738
 42
0.205936
  0
VERTEX
  8
0
 10
2166.239329
 20
514.238251
 42
0.120664
  0
VERTEX
  8
0
 10
2166.804701
 20
517.822025
 42
0.136915
  0
VERTEX
  8
0
 10
2165.573732
 20
521.134145
 42
0.170595
  0
VERTEX
  8
0
 10
2162.889569
 20
522.989800
 42
0.061024
  0
VERTEX
  8
0
 10
2157.405680
 20
523.790891
 42
0.006505
  0
VERTEX
  8
0
 10
2144.500000
 20
523.921872
 42
0.004768
  0
VERTEX
  8
0
 10
2137.828752
 20
523.839161
 42
0.006611
  0
VERTEX
  8
0
 10
2131.852015
 20
523.628956
 42
0.004290
  0
VERTEX
  8
0
 10
2126.853819
 20
523.343959
 42
0.079536
  0
SEQEND
  0
ENDSEC
  0
EOF
